<svg width="200" height="200" viewBox="0 0 508 337" fill="none" xmlns="http://www.w3.org/2000/svg">
<g clip-path="url(#clip0_190_969)">
<path d="M373.137 320.18H362.223V214.02L387.027 213.524L373.137 320.18Z" fill="#FFDEDE"/>
<path d="M425.721 320.18H436.635V214.02L411.831 213.524L425.721 320.18Z" fill="#FFDEDE"/>
<path d="M368.016 334.946L344.794 334.733C343.683 335.008 342.523 335.026 341.403 334.787C340.283 334.547 339.232 334.055 338.33 333.349C337.428 332.643 336.699 331.741 336.197 330.711C335.696 329.682 335.435 328.551 335.435 327.406C335.435 325.984 335.836 324.592 336.593 323.389C337.349 322.185 338.43 321.22 339.711 320.604L345.008 318.056L362.223 306.29L374.625 309.763L377 320.452C377.692 323.562 377.139 326.82 375.46 329.529C373.781 332.237 371.109 334.181 368.016 334.946Z" fill="#2F2E41"/>
<path d="M430.522 334.815L407.3 334.602C406.188 334.877 405.028 334.895 403.909 334.655C402.789 334.415 401.738 333.924 400.836 333.218C399.934 332.511 399.205 331.609 398.703 330.58C398.202 329.55 397.941 328.42 397.941 327.274C397.941 325.853 398.342 324.46 399.099 323.257C399.855 322.054 400.936 321.088 402.217 320.472L407.514 317.924L424.729 306.159L437.131 309.631L439.506 320.32C440.198 323.431 439.645 326.688 437.966 329.397C436.287 332.105 433.615 334.05 430.522 334.815Z" fill="#2F2E41"/>
<path d="M439.6 231.42L405.408 228.367L400.906 188.261L390.824 227.065L356.259 223.978C357.533 200.217 360.275 180.396 366.677 170.402L439.104 157.504L439.6 231.42Z" fill="#2F2E41"/>
<path d="M405.044 45.6846C415.248 45.6846 423.519 37.4132 423.519 27.2099C423.519 17.0065 415.248 8.73511 405.044 8.73511C394.841 8.73511 386.57 17.0065 386.57 27.2099C386.57 37.4132 394.841 45.6846 405.044 45.6846Z" fill="#FFDEDE"/>
<path d="M419.757 65.7301L387.512 61.7615C391.614 53.0257 393.463 44.8684 390.488 37.9498H415.292C411.457 44.7927 414.887 54.9343 419.757 65.7301Z" fill="#FFDEDE"/>
<path d="M439.104 158.496C416.415 175.133 391.652 180.809 364.692 174.867C381.05 137.521 378.714 100.714 364.692 64.2419L390.488 53.3282C397.721 60.3838 406.017 60.5373 415.292 54.3204L440.592 59.7773C435.964 96.1615 434.413 129.956 439.104 158.496Z" fill="#3F3D56"/>
<path d="M391.415 11.0831L388.295 9.83414C388.295 9.83414 394.818 2.65276 403.893 3.27724L401.341 0.46709C401.341 0.46709 407.58 -2.03076 413.252 4.52614C416.234 7.97296 419.684 12.0245 421.835 16.5886H425.176L423.781 19.6588L428.662 22.7291L423.652 22.1776C424.127 24.8283 423.964 27.5538 423.179 30.1294L423.313 32.5561C423.313 32.5561 417.506 23.5724 417.506 22.3235V25.4458C417.506 25.4458 414.387 22.6357 414.387 20.7623L412.685 22.948L411.834 19.5134L401.341 22.948L403.042 20.1379L396.519 21.0746L399.072 17.64C399.072 17.64 391.698 21.699 391.415 25.1336C391.131 28.5682 387.444 32.9395 387.444 32.9395L385.743 29.8171C385.743 29.8171 383.19 15.7666 391.415 11.0831Z" fill="#2F2E41"/>
<path d="M443.628 197.775H331.576C330.44 197.773 329.35 197.321 328.547 196.518C327.743 195.714 327.291 194.625 327.29 193.488V176.344C327.291 175.208 327.743 174.118 328.547 173.315C329.35 172.511 330.44 172.059 331.576 172.058H443.628C444.764 172.059 445.854 172.511 446.657 173.315C447.461 174.118 447.913 175.208 447.914 176.344V193.488C447.913 194.625 447.461 195.714 446.657 196.518C445.854 197.321 444.764 197.773 443.628 197.775Z" fill="#FFA141"/>
<path d="M348.328 181.275C347.373 181.291 346.463 181.682 345.793 182.363C345.123 183.044 344.748 183.961 344.748 184.916C344.748 185.871 345.123 186.788 345.793 187.469C346.463 188.15 347.373 188.541 348.328 188.557H426.756C427.719 188.57 428.649 188.2 429.34 187.529C430.032 186.857 430.429 185.939 430.445 184.976C430.461 184.012 430.094 183.082 429.425 182.388C428.756 181.694 427.839 181.294 426.875 181.275C426.836 181.275 426.796 181.275 426.756 181.275H348.328Z" fill="white"/>
<path d="M376.102 167.922L381.798 178.075C382.472 179.277 382.862 180.618 382.937 181.994C383.012 183.371 382.771 184.746 382.231 186.015C381.691 187.283 380.868 188.411 379.824 189.311C378.781 190.212 377.544 190.861 376.211 191.209C374.863 191.561 373.453 191.595 372.09 191.31C370.727 191.025 369.448 190.428 368.355 189.566C367.261 188.705 366.382 187.601 365.786 186.343C365.19 185.084 364.894 183.704 364.921 182.312L365.188 168.418C360.909 143.72 357.436 120.335 358.243 103.928H378.086L374.118 122.779L376.102 167.922Z" fill="#FFDEDE"/>
<path d="M441.584 170.402L437.412 177.355C436.729 178.493 435.775 179.444 434.635 180.124C433.495 180.803 432.204 181.189 430.878 181.248C429.552 181.306 428.233 181.036 427.037 180.46C425.841 179.884 424.807 179.02 424.026 177.947C423.402 177.089 422.955 176.116 422.709 175.084C422.463 174.053 422.424 172.982 422.594 171.935C422.764 170.888 423.139 169.885 423.699 168.984C424.258 168.083 424.991 167.301 425.854 166.685L433.151 161.473L443.568 118.314L437.119 100.455L454.978 97.4789C463.363 116.858 454.917 142.693 441.584 170.402Z" fill="#FFDEDE"/>
<path d="M382.551 107.897L356.259 106.408L358.065 78.2364C357.975 74.2485 359.229 70.3462 361.626 67.1578C364.023 63.9695 367.423 61.6806 371.279 60.6599L374.614 59.7772L382.551 107.897Z" fill="#3F3D56"/>
<path d="M456.962 98.9673L432.655 104.92V58.2891L433.658 58.2243C437.653 57.9666 441.608 59.1537 444.801 61.5692C447.994 63.9846 450.213 67.4675 451.051 71.3823L456.962 98.9673Z" fill="#3F3D56"/>
<path d="M508 334.842H136.884V336.066H508V334.842Z" fill="#E6E6E6"/>
<path d="M16.3104 298.705C16.6427 311.115 18.7214 323.416 22.4854 335.247C22.5715 335.521 22.6616 335.792 22.7518 336.066H45.7963C45.7718 335.82 45.7472 335.546 45.7226 335.247C44.186 317.582 35.3271 210.071 45.9193 191.685C44.9932 193.177 14.5239 242.577 16.3104 298.705Z" fill="#E6E6E6"/>
<path d="M18.0394 335.247C18.232 335.521 18.4328 335.796 18.6376 336.066H35.9252C35.794 335.833 35.6424 335.558 35.4662 335.247C32.6102 330.092 24.157 314.681 16.3103 298.705C7.87752 281.536 0.141368 263.716 0.792885 257.266C0.592086 258.721 -5.24281 303.065 18.0394 335.247Z" fill="#E6E6E6"/>
<path d="M233.829 137.352H45.8511C44.7147 137.35 43.6253 136.898 42.8218 136.095C42.0183 135.291 41.5663 134.202 41.5649 133.066V28.3613C41.5663 27.225 42.0183 26.1356 42.8218 25.332C43.6253 24.5285 44.7147 24.0765 45.8511 24.0752H233.829C234.965 24.0766 236.055 24.5286 236.858 25.3321C237.662 26.1356 238.114 27.225 238.115 28.3613V133.066C238.114 134.202 237.662 135.291 236.858 136.095C236.055 136.898 234.965 137.35 233.829 137.352Z" fill="#FFA141"/>
<path d="M236.154 336.066H43.2778C42.4662 336.065 41.688 335.742 41.1141 335.168C40.5401 334.594 40.2173 333.816 40.2163 333.005V26.8668C40.2173 26.0551 40.5401 25.277 41.1141 24.7031C41.688 24.1291 42.4662 23.8063 43.2778 23.8053H236.154C236.966 23.8063 237.744 24.1291 238.318 24.7031C238.892 25.277 239.215 26.0552 239.216 26.8668V333.005C239.215 333.816 238.892 334.594 238.318 335.168C237.744 335.742 236.966 336.065 236.154 336.066ZM43.2778 25.0299C42.7908 25.0304 42.3239 25.2241 41.9795 25.5685C41.6352 25.9129 41.4415 26.3798 41.4409 26.8668V333.005C41.4415 333.492 41.6352 333.958 41.9795 334.303C42.3239 334.647 42.7908 334.841 43.2778 334.841H236.154C236.641 334.841 237.108 334.647 237.453 334.303C237.797 333.958 237.991 333.492 237.991 333.005V26.8668C237.991 26.3798 237.797 25.9129 237.453 25.5685C237.108 25.2241 236.641 25.0304 236.154 25.0299H43.2778Z" fill="#E6E6E6"/>
<path d="M66.0574 194.296C69.7772 194.296 72.7927 191.281 72.7927 187.561C72.7927 183.841 69.7772 180.825 66.0574 180.825C62.3375 180.825 59.322 183.841 59.322 187.561C59.322 191.281 62.3375 194.296 66.0574 194.296Z" fill="#E6E6E6"/>
<path d="M208.112 200.419H96.0603C94.924 200.418 93.8345 199.966 93.031 199.162C92.2275 198.359 91.7755 197.269 91.7742 196.133V178.988C91.7755 177.852 92.2275 176.763 93.031 175.959C93.8345 175.156 94.924 174.704 96.0603 174.702H208.112C209.249 174.704 210.338 175.156 211.141 175.959C211.945 176.763 212.397 177.852 212.398 178.988V196.133C212.397 197.269 211.945 198.359 211.141 199.162C210.338 199.966 209.249 200.418 208.112 200.419Z" fill="#E6E6E6"/>
<path d="M212.398 201.031H91.7739C91.6115 201.031 91.4558 200.967 91.341 200.852C91.2261 200.737 91.1616 200.581 91.1616 200.419C91.1616 200.257 91.2261 200.101 91.341 199.986C91.4558 199.871 91.6115 199.807 91.7739 199.807H212.398C212.561 199.807 212.716 199.871 212.831 199.986C212.946 200.101 213.01 200.257 213.01 200.419C213.01 200.581 212.946 200.737 212.831 200.852C212.716 200.967 212.561 201.031 212.398 201.031Z" fill="#3F3D56"/>
<path d="M66.0574 234.708C69.7772 234.708 72.7927 231.693 72.7927 227.973C72.7927 224.253 69.7772 221.238 66.0574 221.238C62.3375 221.238 59.322 224.253 59.322 227.973C59.322 231.693 62.3375 234.708 66.0574 234.708Z" fill="#E6E6E6"/>
<path d="M208.112 240.831H96.0603C94.924 240.83 93.8345 240.378 93.031 239.574C92.2275 238.771 91.7755 237.682 91.7742 236.545V219.401C91.7755 218.264 92.2275 217.175 93.031 216.371C93.8345 215.568 94.924 215.116 96.0603 215.115H208.112C209.249 215.116 210.338 215.568 211.141 216.371C211.945 217.175 212.397 218.264 212.398 219.401V236.545C212.397 237.682 211.945 238.771 211.141 239.574C210.338 240.378 209.249 240.83 208.112 240.831Z" fill="#E6E6E6"/>
<path d="M212.398 241.444H91.7739C91.6115 241.444 91.4558 241.379 91.341 241.264C91.2261 241.149 91.1616 240.994 91.1616 240.831C91.1616 240.669 91.2261 240.513 91.341 240.398C91.4558 240.283 91.6115 240.219 91.7739 240.219H212.398C212.561 240.219 212.716 240.283 212.831 240.398C212.946 240.513 213.01 240.669 213.01 240.831C213.01 240.994 212.946 241.149 212.831 241.264C212.716 241.379 212.561 241.444 212.398 241.444Z" fill="#3F3D56"/>
<path d="M66.0574 275.12C69.7772 275.12 72.7927 272.105 72.7927 268.385C72.7927 264.665 69.7772 261.65 66.0574 261.65C62.3375 261.65 59.322 264.665 59.322 268.385C59.322 272.105 62.3375 275.12 66.0574 275.12Z" fill="#E6E6E6"/>
<path d="M142.596 281.243H96.0603C94.924 281.242 93.8345 280.79 93.031 279.987C92.2275 279.183 91.7755 278.094 91.7742 276.957V259.813C91.7755 258.676 92.2275 257.587 93.031 256.783C93.8345 255.98 94.924 255.528 96.0603 255.527H142.596C143.732 255.528 144.821 255.98 145.625 256.784C146.428 257.587 146.88 258.676 146.882 259.813V276.957C146.88 278.094 146.428 279.183 145.625 279.987C144.821 280.79 143.732 281.242 142.596 281.243Z" fill="#E6E6E6"/>
<path d="M146.881 281.856H91.7739C91.6115 281.856 91.4558 281.791 91.341 281.676C91.2261 281.562 91.1616 281.406 91.1616 281.243C91.1616 281.081 91.2261 280.925 91.341 280.81C91.4558 280.696 91.6115 280.631 91.7739 280.631H146.881C147.044 280.631 147.2 280.696 147.314 280.81C147.429 280.925 147.494 281.081 147.494 281.243C147.494 281.406 147.429 281.562 147.314 281.676C147.2 281.791 147.044 281.856 146.881 281.856Z" fill="#3F3D56"/>
<path d="M208.112 281.243H161.577C160.441 281.242 159.351 280.79 158.548 279.987C157.744 279.183 157.292 278.094 157.291 276.957V259.813C157.292 258.676 157.744 257.587 158.548 256.783C159.351 255.98 160.441 255.528 161.577 255.527H208.112C209.248 255.528 210.338 255.98 211.141 256.784C211.945 257.587 212.397 258.676 212.398 259.813V276.957C212.397 278.094 211.945 279.183 211.141 279.987C210.338 280.79 209.248 281.242 208.112 281.243Z" fill="#E6E6E6"/>
<path d="M212.398 281.856H157.291C157.128 281.856 156.973 281.791 156.858 281.676C156.743 281.562 156.678 281.406 156.678 281.243C156.678 281.081 156.743 280.925 156.858 280.81C156.973 280.696 157.128 280.631 157.291 280.631H212.398C212.561 280.631 212.716 280.696 212.831 280.81C212.946 280.925 213.011 281.081 213.011 281.243C213.011 281.406 212.946 281.562 212.831 281.676C212.716 281.791 212.561 281.856 212.398 281.856Z" fill="#3F3D56"/>
<path d="M66.2774 56.8666C65.3222 56.8823 64.4114 57.2728 63.7415 57.9539C63.0715 58.6349 62.696 59.552 62.696 60.5074C62.696 61.4627 63.0715 62.3798 63.7415 63.0609C64.4114 63.7419 65.3222 64.1324 66.2774 64.1481H213.283C213.762 64.1565 214.237 64.0705 214.682 63.8951C215.127 63.7196 215.534 63.4581 215.878 63.1255C216.222 62.793 216.497 62.3958 216.687 61.9568C216.878 61.5179 216.98 61.0457 216.988 60.5672C216.996 60.0888 216.909 59.6134 216.733 59.1685C216.557 58.7235 216.295 58.3175 215.962 57.9738C215.629 57.6301 215.232 57.3554 214.793 57.1655C214.354 56.9755 213.881 56.8739 213.403 56.8666C213.363 56.8659 213.323 56.8659 213.283 56.8666H66.2774Z" fill="white"/>
<path d="M66.2774 77.0725C65.3222 77.0882 64.4114 77.4787 63.7415 78.1598C63.0715 78.8409 62.696 79.758 62.696 80.7133C62.696 81.6687 63.0715 82.5857 63.7415 83.2668C64.4114 83.9479 65.3222 84.3384 66.2774 84.3541H213.283C214.248 84.3689 215.179 84 215.873 83.3285C216.566 82.6571 216.964 81.7379 216.98 80.773C216.996 79.8081 216.628 78.8764 215.957 78.1825C215.286 77.4887 214.368 77.0894 213.403 77.0725C213.363 77.0719 213.323 77.0719 213.283 77.0725H66.2774Z" fill="white"/>
<path d="M66.2774 97.2788C65.3222 97.2945 64.4114 97.685 63.7415 98.3661C63.0715 99.0472 62.696 99.9643 62.696 100.92C62.696 101.875 63.0715 102.792 63.7415 103.473C64.4114 104.154 65.3222 104.545 66.2774 104.56H213.283C214.248 104.575 215.179 104.206 215.873 103.535C216.566 102.863 216.964 101.944 216.98 100.979C216.996 100.014 216.628 99.0827 215.957 98.3888C215.286 97.695 214.368 97.2957 213.403 97.2788C213.363 97.2782 213.323 97.2782 213.283 97.2788H66.2774Z" fill="white"/>
<path d="M206.763 311.428L205.222 309.887C205.189 309.854 205.15 309.828 205.106 309.81C205.063 309.792 205.016 309.783 204.969 309.783H204.219C204.149 309.783 204.079 309.804 204.021 309.843C203.962 309.882 203.916 309.938 203.889 310.004C203.862 310.069 203.855 310.141 203.868 310.211C203.882 310.28 203.916 310.344 203.966 310.394L204.819 311.246H198.009C197.847 311.246 197.691 311.311 197.576 311.426C197.461 311.541 197.397 311.696 197.397 311.859C197.397 312.021 197.461 312.177 197.576 312.292C197.691 312.406 197.847 312.471 198.009 312.471H204.819L204.053 313.237C203.996 313.294 203.957 313.367 203.941 313.446C203.926 313.525 203.934 313.608 203.965 313.682C203.996 313.757 204.048 313.821 204.115 313.866C204.183 313.911 204.262 313.935 204.343 313.935H204.948C205.002 313.935 205.055 313.924 205.105 313.904C205.154 313.883 205.199 313.853 205.237 313.815L206.763 312.289C206.82 312.232 206.865 312.165 206.895 312.092C206.926 312.018 206.942 311.939 206.942 311.859C206.942 311.779 206.926 311.7 206.895 311.626C206.865 311.552 206.82 311.485 206.763 311.428Z" fill="#FDDFA7"/>
<path d="M202.602 321.656C200.664 321.656 198.77 321.081 197.159 320.005C195.548 318.928 194.292 317.398 193.55 315.608C192.809 313.818 192.615 311.848 192.993 309.948C193.371 308.047 194.304 306.302 195.674 304.931C197.044 303.561 198.79 302.628 200.69 302.25C202.591 301.872 204.561 302.066 206.351 302.808C208.141 303.549 209.671 304.805 210.747 306.416C211.824 308.027 212.398 309.921 212.398 311.859C212.396 314.456 211.362 316.946 209.526 318.783C207.689 320.62 205.199 321.653 202.602 321.656ZM202.602 303.287C200.906 303.287 199.249 303.789 197.839 304.731C196.429 305.673 195.331 307.012 194.682 308.578C194.033 310.145 193.863 311.868 194.194 313.531C194.525 315.194 195.341 316.722 196.54 317.92C197.739 319.119 199.266 319.936 200.929 320.266C202.592 320.597 204.316 320.427 205.882 319.779C207.448 319.13 208.787 318.031 209.729 316.621C210.671 315.212 211.174 313.554 211.174 311.859C211.171 309.586 210.267 307.407 208.66 305.8C207.053 304.193 204.874 303.289 202.602 303.287Z" fill="#3F3D56"/>
</g>
<defs>
<clipPath id="clip0_190_969">
<rect width="508" height="336.066" fill="white"/>
</clipPath>
</defs>
</svg>
