<svg width="25" height="25" viewBox="0 0 25 25" fill="none" xmlns="http://www.w3.org/2000/svg">
<path d="M12.5 14.5832V16.6665C10.8424 16.6665 9.25264 17.325 8.08054 18.4971C6.90844 19.6692 6.24996 21.2589 6.24996 22.9165H4.16663C4.16663 20.7064 5.0446 18.5868 6.6074 17.0239C8.17021 15.4611 10.2898 14.5832 12.5 14.5832ZM12.5 13.5415C9.04683 13.5415 6.24996 10.7446 6.24996 7.2915C6.24996 3.83838 9.04683 1.0415 12.5 1.0415C15.9531 1.0415 18.75 3.83838 18.75 7.2915C18.75 10.7446 15.9531 13.5415 12.5 13.5415ZM12.5 11.4582C14.802 11.4582 16.6666 9.59359 16.6666 7.2915C16.6666 4.98942 14.802 3.12484 12.5 3.12484C10.1979 3.12484 8.33329 4.98942 8.33329 7.2915C8.33329 9.59359 10.1979 11.4582 12.5 11.4582ZM21.875 17.7082H22.9166V22.9165H14.5833V17.7082H15.625V16.6665C15.625 15.8377 15.9542 15.0428 16.5402 14.4568C17.1263 13.8707 17.9212 13.5415 18.75 13.5415C19.5788 13.5415 20.3736 13.8707 20.9597 14.4568C21.5457 15.0428 21.875 15.8377 21.875 16.6665V17.7082ZM19.7916 17.7082V16.6665C19.7916 16.3902 19.6819 16.1253 19.4865 15.9299C19.2912 15.7346 19.0262 15.6248 18.75 15.6248C18.4737 15.6248 18.2087 15.7346 18.0134 15.9299C17.818 16.1253 17.7083 16.3902 17.7083 16.6665V17.7082H19.7916Z" fill="white"/>
</svg>
