<svg width="25" height="24" viewBox="0 0 25 24" fill="none" xmlns="http://www.w3.org/2000/svg">
<path d="M8.40337 13.5084C8.40337 13.8823 8.09744 14.1881 7.72362 14.1881H4.32477C3.95095 14.1881 3.64502 13.8822 3.64502 13.5084V11.2365C3.64502 10.8626 3.95095 10.5568 4.32477 10.5568H7.72362C8.09752 10.5568 8.40337 10.8627 8.40337 11.2365V13.5084Z" fill="black"/>
<path d="M8.40239 19.4781C8.40239 19.852 8.09647 20.1579 7.72264 20.1579H4.3238C3.94997 20.1579 3.64404 19.8519 3.64404 19.4781V17.2062C3.64404 16.8323 3.94997 16.5265 4.3238 16.5265H7.72264C8.09654 16.5265 8.40239 16.8324 8.40239 17.2062V19.4781Z" fill="black"/>
<path d="M14.8795 13.5084C14.8795 13.8823 14.5736 14.1881 14.1998 14.1881H10.8008C10.4269 14.1881 10.1211 13.8822 10.1211 13.5084V11.2365C10.1211 10.8626 10.427 10.5568 10.8008 10.5568H14.1998C14.5737 10.5568 14.8795 10.8627 14.8795 11.2365V13.5084Z" fill="black"/>
<path d="M14.8795 19.4781C14.8795 19.852 14.5736 20.1579 14.1998 20.1579H10.8008C10.4269 20.1579 10.1211 19.8519 10.1211 19.4781V17.2062C10.1211 16.8323 10.427 16.5265 10.8008 16.5265H14.1998C14.5737 16.5265 14.8795 16.8324 14.8795 17.2062V19.4781Z" fill="black"/>
<path d="M21.277 13.5084C21.277 13.8823 20.9711 14.1881 20.5972 14.1881H17.1983C16.8244 14.1881 16.5186 13.8822 16.5186 13.5084V11.2365C16.5186 10.8626 16.8245 10.5568 17.1983 10.5568H20.5972C20.9711 10.5568 21.277 10.8627 21.277 11.2365V13.5084Z" fill="black"/>
<path d="M21.277 19.4781C21.277 19.852 20.9711 20.1579 20.5972 20.1579H17.1983C16.8244 20.1579 16.5186 19.8519 16.5186 19.4781V17.2062C16.5186 16.8323 16.8245 16.5265 17.1983 16.5265H20.5972C20.9711 16.5265 21.277 16.8324 21.277 17.2062V19.4781Z" fill="black"/>
<path d="M5.34042 5.47304C4.93431 5.47304 4.60205 5.14078 4.60205 4.73459V0.73845C4.60205 0.332257 4.93431 0 5.34042 0H6.87655C7.28266 0 7.615 0.332257 7.615 0.73845V4.73459C7.615 5.1407 7.28274 5.47304 6.87655 5.47304H5.34042Z" fill="black"/>
<path d="M18.1295 5.47304C17.7234 5.47304 17.3911 5.14078 17.3911 4.73459V0.73845C17.3911 0.332257 17.7234 0 18.1295 0H19.6656C20.0717 0 20.4041 0.332257 20.4041 0.73845V4.73459C20.4041 5.1407 20.0718 5.47304 19.6656 5.47304H18.1295Z" fill="black"/>
<path d="M24.2868 3.01965C24.2868 3.01965 23.0676 3.01965 22.1373 3.01965C22.0145 3.01965 21.7873 3.01965 21.7873 3.3028V4.56679C21.7873 5.7736 21.1188 6.75543 19.5986 6.75543H18.1844C16.743 6.75543 15.9958 5.7736 15.9958 4.56679L15.9959 3.36881C15.9959 3.14248 15.8377 3.01965 15.6491 3.01965C13.8483 3.01965 11.2707 3.01965 9.40603 3.01965C9.26751 3.01965 9.00421 3.01965 9.00421 3.37824V4.56679C9.00421 5.7736 8.40247 6.75543 6.81557 6.75543H5.40136C3.64411 6.75543 3.21272 5.7736 3.21272 4.56679V3.42539C3.21272 3.10475 2.92407 3.01965 2.76692 3.01965C1.84748 3.01965 0.713251 3.01965 0.713251 3.01965C0.32094 3.01965 0 3.34059 0 4.26132V23.3199C0 23.1838 0.32094 23.5048 0.713251 23.5048H24.2867C24.6791 23.5048 25 23.1838 25 23.3199V4.26132C25 3.34059 24.6791 3.01965 24.2868 3.01965ZM23.4151 21.2065C23.4151 21.5988 23.0941 21.9198 22.7018 21.9198H2.29826C1.90595 21.9198 1.58501 21.5988 1.58501 21.2065V9.39689C1.58501 9.00458 1.90595 8.68364 2.29826 8.68364H22.7018C23.0941 8.68364 23.4151 9.00458 23.4151 9.39689V21.2065Z" fill="black"/>
</svg>
