<svg width="25" height="25" viewBox="0 0 25 25" fill="none" xmlns="http://www.w3.org/2000/svg">
<path d="M3.39906 24.3692C3.39906 24.3692 3.37632 25 3.92293 25C4.60311 25 10.2246 24.9914 10.2246 24.9914L10.234 19.1635C10.234 19.1635 10.145 18.2034 10.9701 18.2034H13.5857C14.5624 18.2034 14.5027 19.1635 14.5027 19.1635L14.4913 24.9732C14.4913 24.9732 19.8229 24.9732 20.6603 24.9732C21.3538 24.9732 21.3225 24.1885 21.3225 24.1885V13.4414L12.6279 4.71387L3.39906 13.4424C3.39906 13.4424 3.39906 24.3692 3.39906 24.3692Z" fill="white"/>
<path d="M0 12.6299C0 12.6299 0.782493 14.2593 2.49242 12.6299L12.7056 2.87816L22.2802 12.569C24.2582 14.1791 25 12.569 25 12.569L12.7056 0L0 12.6299Z" fill="white"/>
<path d="M22.0473 2.85547H19.5852L19.5956 6.22651L22.0473 8.57544V2.85547Z" fill="white"/>
</svg>
