<svg width="20" height="20" viewBox="0 0 20 20" fill="none" xmlns="http://www.w3.org/2000/svg">
<path d="M19.3862 10.7862C19.3862 11.4862 18.822 12.0566 18.1158 12.0566H7.58548L12.0536 16.5247C12.5469 17.0181 12.5469 17.8229 12.0536 18.3255L10.8541 19.525C10.3607 20.0184 9.55589 20.0184 9.05329 19.525L0.373089 10.8448C0.126405 10.5981 0 10.2744 0 9.9475C0 9.62375 0.126405 9.29685 0.373089 9.05017L9.05329 0.369967C9.54666 -0.12336 10.3515 -0.12336 10.8541 0.369967L12.0536 1.56949C12.5469 2.06285 12.5469 2.86768 12.0536 3.37028L7.58548 7.82292H18.1096C18.8096 7.82292 19.3801 8.39339 19.3801 9.09338L19.3862 10.7862Z" fill="white"/>
</svg>
