<svg width="34" height="39" viewBox="0 0 34 39" fill="none" xmlns="http://www.w3.org/2000/svg">
<path d="M16.996 38.8345C7.61235 38.8345 0 31.2261 0 21.8424C0 15.0781 3.98252 9.30443 9.71259 6.58601V12.1853C6.77622 14.3965 4.85827 17.8837 4.85827 21.8424C4.85827 28.5473 10.2951 33.9762 16.996 33.9762C23.7009 33.9762 29.1378 28.5473 29.1378 21.8424C29.1378 17.8837 27.2198 14.3925 24.2834 12.1853V6.58601C30.0135 9.30443 34 15.0781 34 21.8424C34 31.2261 26.3876 38.8345 16.996 38.8345ZM19.4252 16.9881C19.4252 18.3315 18.3394 19.4172 16.996 19.4172C15.6566 19.4172 14.5709 18.3315 14.5709 16.9881V2.42517C14.5709 1.08578 15.6566 0 16.996 0C18.3394 0 19.4252 1.08578 19.4252 2.42517V16.9881Z" fill="#FFA141"/>
</svg>
