<svg width="25" height="25" viewBox="0 0 25 25" fill="none" xmlns="http://www.w3.org/2000/svg">
<path d="M18.477 9.78247H11.6836V13.0433H18.477V9.78247Z" fill="white"/>
<path d="M18.477 4.89136H11.6836V8.1522H18.477V4.89136Z" fill="white"/>
<path d="M10.0533 4.89136H6.52075V13.0434H10.0533V4.89136Z" fill="white"/>
<path d="M17.6485 23.4112L13.3144 21.9665V19.5649H11.6838V21.9666L7.34999 23.4111C6.92275 23.5534 6.69238 24.0151 6.83466 24.4421C6.97729 24.8712 7.4415 25.1 7.86591 24.9577L12.4992 23.4132L17.1325 24.9577C17.5572 25.1001 18.0213 24.8708 18.1638 24.4421C18.306 24.0152 18.0757 23.5534 17.6485 23.4112Z" fill="white"/>
<path d="M24.1845 16.3042H23.3693V1.63042H24.1845C24.6346 1.63042 24.9997 1.26553 24.9997 0.815236C24.9997 0.364893 24.6346 0 24.1845 0C13.703 0 11.5158 0 0.815187 0C0.365137 0 0 0.364893 0 0.815187C0 1.26553 0.365137 1.63037 0.815187 1.63037H1.63037V16.3041H0.815187C0.365137 16.3041 0 16.669 0 17.1193C0 17.5697 0.365137 17.9345 0.815187 17.9345C3.56422 17.9345 21.6489 17.9345 24.1845 17.9345C24.6345 17.9345 24.9997 17.5696 24.9997 17.1193C24.9997 16.6691 24.6346 16.3042 24.1845 16.3042ZM20.1085 13.8585C20.1085 14.3089 19.7434 14.6737 19.2933 14.6737H5.70646C5.25641 14.6737 4.89127 14.3088 4.89127 13.8585V4.07603C4.89127 3.62569 5.25641 3.26085 5.70646 3.26085H19.2933C19.7433 3.26085 20.1084 3.62574 20.1084 4.07603V13.8585H20.1085Z" fill="white"/>
</svg>
