<svg width="20" height="20" viewBox="0 0 20 20" fill="none" xmlns="http://www.w3.org/2000/svg">
<path d="M0 9.1088C0 8.40885 0.564268 7.83837 1.27042 7.83837H11.8007L7.33267 3.37034C6.8393 2.87697 6.8393 2.07214 7.33267 1.56955L8.53215 0.370026C9.02552 -0.123342 9.83034 -0.123342 10.3329 0.370026L19.0131 9.05019C19.2598 9.29687 19.3862 9.62066 19.3862 9.94752C19.3862 10.2713 19.2598 10.5982 19.0131 10.8449L10.3329 19.5251C9.83957 20.0184 9.03475 20.0184 8.53215 19.5251L7.33267 18.3255C6.8393 17.8322 6.8393 17.0273 7.33267 16.5247L11.8007 12.0721H1.27663C0.576643 12.0721 0.00616646 11.5016 0.00616646 10.8016L0 9.1088Z" fill="white"/>
</svg>
