<svg width="107" height="75" viewBox="0 0 107 75" fill="none" xmlns="http://www.w3.org/2000/svg">
<g clip-path="url(#clip0_169_393)">
<path d="M23.5847 7.51283H16.7972C16.1447 7.51342 15.519 7.7729 15.0576 8.23432C14.5962 8.69574 14.3367 9.32138 14.3361 9.97393V17.3326C14.2494 17.3274 14.1626 17.3197 14.0771 17.3093C12.4691 17.1401 10.9403 16.5251 9.66313 15.5336C8.38596 14.542 7.41119 13.2134 6.84871 11.6975C6.28623 10.1816 6.15841 8.53877 6.47967 6.95413C6.80093 5.36949 7.55849 3.90611 8.66693 2.72897C9.77538 1.55184 11.1906 0.707771 12.7531 0.291931C14.3156 -0.12391 15.9632 -0.0949838 17.5101 0.375449C19.0571 0.845882 20.4418 1.73911 21.5082 2.95443C22.5747 4.16975 23.2804 5.65882 23.5458 7.25377C23.5601 7.33925 23.573 7.42604 23.5847 7.51283Z" fill="#FCC04E"/>
<path d="M103.713 7.25378H16.7971C16.0759 7.25457 15.3845 7.54141 14.8745 8.05137C14.3645 8.56133 14.0777 9.25276 14.0769 9.97395V55.8281C14.0777 56.5493 14.3645 57.2407 14.8745 57.7507C15.3845 58.2606 16.0759 58.5475 16.7971 58.5483H103.713C104.434 58.5475 105.125 58.2606 105.635 57.7507C106.145 57.2407 106.432 56.5493 106.433 55.8281V9.97395C106.432 9.25276 106.145 8.56133 105.635 8.05137C105.125 7.54141 104.434 7.25457 103.713 7.25378ZM106.174 55.8281C106.173 56.4807 105.914 57.1063 105.452 57.5677C104.991 58.0291 104.365 58.2886 103.713 58.2892H16.7971C16.1445 58.2886 15.5189 58.0291 15.0575 57.5677C14.596 57.1063 14.3366 56.4807 14.336 55.8281V9.97395C14.3366 9.3214 14.596 8.69576 15.0575 8.23434C15.5189 7.77292 16.1445 7.51344 16.7971 7.51285H103.713C104.365 7.51344 104.991 7.77292 105.452 8.23434C105.914 8.69576 106.173 9.3214 106.174 9.97395V55.8281Z" fill="#3F3D56"/>
<path d="M99.4382 14.685H21.0717C21.0373 14.685 21.0044 14.6713 20.9801 14.647C20.9558 14.6227 20.9421 14.5898 20.9421 14.5554C20.9421 14.5211 20.9558 14.4881 20.9801 14.4638C21.0044 14.4396 21.0373 14.4259 21.0717 14.4259H99.4382C99.4726 14.4259 99.5055 14.4396 99.5298 14.4638C99.5541 14.4881 99.5678 14.5211 99.5678 14.5554C99.5678 14.5898 99.5541 14.6227 99.5298 14.647C99.5055 14.6713 99.4726 14.685 99.4382 14.685Z" fill="#3F3D56"/>
<path d="M43.2216 52.9785C43.1872 52.9785 43.1543 52.9648 43.13 52.9405C43.1057 52.9162 43.092 52.8833 43.092 52.8489V10.233C43.092 10.1987 43.1057 10.1657 43.13 10.1415C43.1543 10.1172 43.1872 10.1035 43.2216 10.1035C43.2559 10.1035 43.2889 10.1172 43.3132 10.1415C43.3375 10.1657 43.3511 10.1987 43.3511 10.233V52.8489C43.3511 52.8833 43.3375 52.9162 43.3132 52.9405C43.2889 52.9648 43.2559 52.9785 43.2216 52.9785Z" fill="#3F3D56"/>
<path d="M62.7807 52.9785C62.7463 52.9785 62.7134 52.9648 62.6891 52.9405C62.6648 52.9162 62.6511 52.8833 62.6511 52.8489V10.233C62.6511 10.1987 62.6648 10.1657 62.6891 10.1415C62.7134 10.1172 62.7463 10.1035 62.7807 10.1035C62.815 10.1035 62.848 10.1172 62.8722 10.1415C62.8965 10.1657 62.9102 10.1987 62.9102 10.233V52.8489C62.9102 52.8833 62.8965 52.9162 62.8722 52.9405C62.848 52.9648 62.815 52.9785 62.7807 52.9785Z" fill="#3F3D56"/>
<path d="M82.3402 52.9785C82.3059 52.9785 82.2729 52.9648 82.2486 52.9405C82.2243 52.9162 82.2107 52.8833 82.2107 52.8489V10.233C82.2107 10.1987 82.2243 10.1657 82.2486 10.1415C82.2729 10.1172 82.3059 10.1035 82.3402 10.1035C82.3746 10.1035 82.4075 10.1172 82.4318 10.1415C82.4561 10.1657 82.4698 10.1987 82.4698 10.233V52.8489C82.4698 52.8833 82.4561 52.9162 82.4318 52.9405C82.4075 52.9648 82.3746 52.9785 82.3402 52.9785Z" fill="#3F3D56"/>
<path d="M30.6463 28.0548H25.9132C25.7587 28.0547 25.6105 27.9932 25.5012 27.8839C25.392 27.7747 25.3305 27.6265 25.3303 27.472V21.8866C25.3305 21.7321 25.392 21.5839 25.5012 21.4746C25.6105 21.3653 25.7587 21.3039 25.9132 21.3037H30.6463C30.8008 21.3039 30.949 21.3653 31.0583 21.4746C31.1676 21.5839 31.229 21.7321 31.2292 21.8866V27.472C31.229 27.6265 31.1676 27.7747 31.0583 27.8839C30.949 27.9932 30.8008 28.0547 30.6463 28.0548Z" fill="#FCC04E"/>
<path d="M37.3819 43.9872H32.6488C32.4943 43.987 32.3461 43.9256 32.2368 43.8163C32.1276 43.707 32.0661 43.5589 32.0659 43.4043V37.819C32.0661 37.6644 32.1276 37.5163 32.2368 37.407C32.3461 37.2977 32.4943 37.2363 32.6488 37.2361H37.3819C37.5364 37.2363 37.6846 37.2977 37.7939 37.407C37.9031 37.5163 37.9646 37.6644 37.9648 37.819V43.4043C37.9646 43.5589 37.9031 43.707 37.7939 43.8163C37.6846 43.9256 37.5364 43.987 37.3819 43.9872Z" fill="#FCC04E"/>
<path d="M52.6666 31.4228H47.9335C47.7789 31.4226 47.6308 31.3611 47.5215 31.2518C47.4122 31.1426 47.3508 30.9944 47.3506 30.8399V25.2545C47.3508 25.1 47.4122 24.9518 47.5215 24.8425C47.6308 24.7333 47.7789 24.6718 47.9335 24.6716H52.6666C52.8211 24.6718 52.9693 24.7333 53.0785 24.8425C53.1878 24.9518 53.2493 25.1 53.2494 25.2545V30.8399C53.2493 30.9944 53.1878 31.1426 53.0785 31.2518C52.9693 31.3611 52.8211 31.4226 52.6666 31.4228Z" fill="#FCC04E"/>
<path d="M72.4849 25.3346H67.7518C67.5973 25.3345 67.4491 25.273 67.3399 25.1637C67.2306 25.0544 67.1691 24.9063 67.1689 24.7517V19.1664C67.1691 19.0118 67.2306 18.8637 67.3399 18.7544C67.4491 18.6451 67.5973 18.5837 67.7518 18.5835H72.4849C72.6395 18.5837 72.7876 18.6451 72.8969 18.7544C73.0062 18.8637 73.0676 19.0118 73.0678 19.1664V24.7517C73.0676 24.9063 73.0062 25.0544 72.8969 25.1637C72.7876 25.273 72.6395 25.3345 72.4849 25.3346Z" fill="#FCC04E"/>
<path d="M90.7486 25.3346H86.0155C85.861 25.3345 85.7128 25.273 85.6035 25.1637C85.4943 25.0544 85.4328 24.9063 85.4326 24.7517V19.1664C85.4328 19.0118 85.4943 18.8637 85.6035 18.7544C85.7128 18.6451 85.861 18.5837 86.0155 18.5835H90.7486C90.9031 18.5837 91.0513 18.6451 91.1606 18.7544C91.2698 18.8637 91.3313 19.0118 91.3315 19.1664V24.7517C91.3313 24.9063 91.2698 25.0544 91.1606 25.1637C91.0513 25.273 90.9031 25.3345 90.7486 25.3346Z" fill="#FCC04E"/>
<path d="M99.1683 26.8891H94.4352C94.2806 26.8889 94.1325 26.8274 94.0232 26.7182C93.9139 26.6089 93.8525 26.4607 93.8523 26.3062V20.7208C93.8525 20.5663 93.9139 20.4181 94.0232 20.3089C94.1325 20.1996 94.2806 20.1381 94.4352 20.1379H99.1683C99.3228 20.1381 99.471 20.1996 99.5802 20.3089C99.6895 20.4181 99.751 20.5663 99.7512 20.7208V26.3062C99.751 26.4607 99.6895 26.6089 99.5802 26.7182C99.471 26.8274 99.3228 26.8889 99.1683 26.8891Z" fill="#E6E6E6"/>
<path d="M95.4119 36.8631H90.6788C90.5243 36.8629 90.3761 36.8014 90.2669 36.6922C90.1576 36.5829 90.0961 36.4347 90.0959 36.2802V30.6948C90.0961 30.5403 90.1576 30.3921 90.2669 30.2829C90.3761 30.1736 90.5243 30.1121 90.6788 30.1119H95.4119C95.5665 30.1121 95.7146 30.1736 95.8239 30.2829C95.9332 30.3921 95.9946 30.5403 95.9948 30.6948V36.2802C95.9946 36.4347 95.9332 36.5829 95.8239 36.6922C95.7146 36.8014 95.5665 36.8629 95.4119 36.8631Z" fill="#E6E6E6"/>
<path d="M79.3502 34.7906H74.6171C74.4625 34.7904 74.3144 34.7289 74.2051 34.6196C74.0958 34.5104 74.0344 34.3622 74.0342 34.2077V28.6223C74.0344 28.4678 74.0958 28.3196 74.2051 28.2103C74.3144 28.1011 74.4625 28.0396 74.6171 28.0394H79.3502C79.5047 28.0396 79.6528 28.1011 79.7621 28.2103C79.8714 28.3196 79.9329 28.4678 79.933 28.6223V34.2077C79.9329 34.3622 79.8714 34.5104 79.7621 34.6196C79.6528 34.7289 79.5047 34.7904 79.3502 34.7906Z" fill="#FFA141"/>
<path d="M70.1531 36.8631H65.4201C65.2655 36.8629 65.1173 36.8014 65.0081 36.6922C64.8988 36.5829 64.8373 36.4347 64.8372 36.2802V30.6948C64.8373 30.5403 64.8988 30.3921 65.0081 30.2829C65.1173 30.1736 65.2655 30.1121 65.4201 30.1119H70.1531C70.3077 30.1121 70.4558 30.1736 70.5651 30.2829C70.6744 30.3921 70.7358 30.5403 70.736 30.6948V36.2802C70.7358 36.4347 70.6744 36.5829 70.5651 36.6922C70.4558 36.8014 70.3077 36.8629 70.1531 36.8631Z" fill="#E6E6E6"/>
<path d="M50.3348 45.6712H45.6017C45.4472 45.671 45.299 45.6095 45.1897 45.5003C45.0804 45.391 45.019 45.2428 45.0188 45.0883V39.5029C45.019 39.3484 45.0804 39.2002 45.1897 39.091C45.299 38.9817 45.4472 38.9202 45.6017 38.92H50.3348C50.4893 38.9202 50.6375 38.9817 50.7467 39.091C50.856 39.2002 50.9175 39.3484 50.9177 39.5029V45.0883C50.9175 45.2428 50.856 45.391 50.7467 45.5003C50.6375 45.6095 50.4893 45.671 50.3348 45.6712Z" fill="#E6E6E6"/>
<path d="M26.3716 38.2879H21.6386C21.484 38.2877 21.3359 38.2262 21.2266 38.117C21.1173 38.0077 21.0558 37.8595 21.0557 37.705V32.1196C21.0558 31.9651 21.1173 31.8169 21.2266 31.7077C21.3359 31.5984 21.484 31.5369 21.6386 31.5367H26.3716C26.5262 31.5369 26.6743 31.5984 26.7836 31.7077C26.8929 31.8169 26.9544 31.9651 26.9545 32.1196V37.705C26.9544 37.8595 26.8929 38.0077 26.7836 38.117C26.6743 38.2262 26.5262 38.2877 26.3716 38.2879Z" fill="#FFA141"/>
<path d="M39.7134 28.0548H34.9804C34.8258 28.0547 34.6777 27.9932 34.5684 27.8839C34.4591 27.7747 34.3976 27.6265 34.3975 27.472V21.8866C34.3976 21.7321 34.4591 21.5839 34.5684 21.4746C34.6777 21.3653 34.8258 21.3039 34.9804 21.3037H39.7134C39.868 21.3039 40.0161 21.3653 40.1254 21.4746C40.2347 21.5839 40.2962 21.7321 40.2963 21.8866V27.472C40.2962 27.6265 40.2347 27.7747 40.1254 27.8839C40.0161 27.9932 39.868 28.0547 39.7134 28.0548Z" fill="#E6E6E6"/>
<path d="M35.8384 12.5646H28.4551C28.3177 12.5646 28.1859 12.51 28.0888 12.4128C27.9916 12.3156 27.937 12.1839 27.937 12.0464C27.937 11.909 27.9916 11.7772 28.0888 11.6801C28.1859 11.5829 28.3177 11.5283 28.4551 11.5283H35.8384C35.9759 11.5283 36.1076 11.5829 36.2048 11.6801C36.302 11.7772 36.3566 11.909 36.3566 12.0464C36.3566 12.1839 36.302 12.3156 36.2048 12.4128C36.1076 12.51 35.9759 12.5646 35.8384 12.5646Z" fill="#CCCCCC"/>
<path d="M56.6929 12.5646H49.3096C49.1722 12.5646 49.0404 12.51 48.9433 12.4128C48.8461 12.3156 48.7915 12.1839 48.7915 12.0464C48.7915 11.909 48.8461 11.7772 48.9433 11.6801C49.0404 11.5829 49.1722 11.5283 49.3096 11.5283H56.6929C56.8303 11.5283 56.9621 11.5829 57.0593 11.6801C57.1565 11.7772 57.2111 11.909 57.2111 12.0464C57.2111 12.1839 57.1565 12.3156 57.0593 12.4128C56.9621 12.51 56.8303 12.5646 56.6929 12.5646Z" fill="#CCCCCC"/>
<path d="M76.252 12.5646H68.8687C68.7313 12.5646 68.5995 12.51 68.5023 12.4128C68.4052 12.3156 68.3506 12.1839 68.3506 12.0464C68.3506 11.909 68.4052 11.7772 68.5023 11.6801C68.5995 11.5829 68.7313 11.5283 68.8687 11.5283H76.252C76.3894 11.5283 76.5212 11.5829 76.6184 11.6801C76.7155 11.7772 76.7701 11.909 76.7701 12.0464C76.7701 12.1839 76.7155 12.3156 76.6184 12.4128C76.5212 12.51 76.3894 12.5646 76.252 12.5646Z" fill="#CCCCCC"/>
<path d="M94.5162 12.5646H87.1329C86.9955 12.5646 86.8637 12.51 86.7665 12.4128C86.6693 12.3156 86.6147 12.1839 86.6147 12.0464C86.6147 11.909 86.6693 11.7772 86.7665 11.6801C86.8637 11.5829 86.9955 11.5283 87.1329 11.5283H94.5162C94.6536 11.5283 94.7854 11.5829 94.8825 11.6801C94.9797 11.7772 95.0343 11.909 95.0343 12.0464C95.0343 12.1839 94.9797 12.3156 94.8825 12.4128C94.7854 12.51 94.6536 12.5646 94.5162 12.5646Z" fill="#CCCCCC"/>
<path d="M19.3014 50.5032C19.1119 50.4847 18.9288 50.4248 18.7649 50.3278C18.6011 50.2308 18.4604 50.099 18.353 49.9418C18.2456 49.7846 18.1739 49.6057 18.1431 49.4178C18.1122 49.2299 18.123 49.0375 18.1745 48.8542L14.8542 45.7635L16.6098 45.3181L19.8747 47.9662C20.1769 48.0733 20.4294 48.2874 20.5842 48.5681C20.7391 48.8489 20.7856 49.1766 20.7149 49.4893C20.6443 49.8021 20.4613 50.078 20.2008 50.2649C19.9403 50.4517 19.6203 50.5365 19.3014 50.5032Z" fill="#FFB8B8"/>
<path d="M23.8862 73.3476H25.4743L26.2297 67.2223H23.886L23.8862 73.3476Z" fill="#FFDEDE"/>
<path d="M28.5371 74.822L23.5462 74.8222L23.5461 72.8939L26.6087 72.8938C27.1201 72.8938 27.6106 73.0969 27.9723 73.4585C28.3339 73.8201 28.5371 74.3106 28.5371 74.822L28.5371 74.822Z" fill="#2F2E41"/>
<path d="M12.9978 72.2011L14.5325 72.6096L16.8383 66.8848L14.5734 66.282L12.9978 72.2011Z" fill="#FFDEDE"/>
<path d="M17.113 74.8225L12.29 73.5387L12.786 71.6753L15.7456 72.4631C16.2398 72.5946 16.6615 72.9171 16.918 73.3596C17.1744 73.8021 17.2446 74.3283 17.113 74.8225Z" fill="#2F2E41"/>
<path d="M25.9013 72.1879H23.4781C23.325 72.1884 23.1773 72.1316 23.064 72.0287C22.9507 71.9258 22.88 71.7842 22.8659 71.6318L21.3949 56.3559C21.3841 56.2439 21.3347 56.1391 21.2552 56.0594C21.1756 55.9798 21.0709 55.9302 20.9589 55.9193C20.8468 55.9084 20.7345 55.9367 20.641 55.9995C20.5476 56.0622 20.4788 56.1555 20.4466 56.2633L16.1755 70.5376C16.1303 70.6894 16.0283 70.8178 15.8908 70.8961C15.7532 70.9744 15.5907 70.9966 15.4372 70.9581L13.1829 70.3944C13.1042 70.3748 13.0302 70.3397 12.9651 70.2914C12.9001 70.243 12.8452 70.1822 12.8037 70.1125C12.7622 70.0429 12.7349 69.9657 12.7233 69.8854C12.7118 69.8051 12.7162 69.7234 12.7364 69.6448C12.7732 69.501 16.4165 55.2632 16.4483 55.1168C17.2737 49.033 18.2613 47.4027 18.7919 46.527C18.8358 46.4545 18.8762 46.3878 18.9125 46.3248C18.958 46.246 19.2379 45.4642 19.4155 44.9564C19.4386 44.8738 19.4785 44.7969 19.5328 44.7305C19.5871 44.6641 19.6546 44.6097 19.731 44.5707C21.9603 43.4306 24.5686 44.2198 25.3149 44.4889C25.4387 44.5325 25.5449 44.615 25.6178 44.724C27.8567 48.1011 26.758 67.7148 26.515 71.6123C26.5049 71.7682 26.4358 71.9145 26.3218 72.0214C26.2079 72.1282 26.0575 72.1878 25.9013 72.1879Z" fill="#2F2E41"/>
<path d="M19.6477 33.4949C21.4048 33.4949 22.8292 32.0706 22.8292 30.3135C22.8292 28.5565 21.4048 27.1321 19.6477 27.1321C17.8907 27.1321 16.4663 28.5565 16.4663 30.3135C16.4663 32.0706 17.8907 33.4949 19.6477 33.4949Z" fill="#FFDEDE"/>
<path d="M19.3109 45.5741L19.288 45.552C19.2451 45.5105 15.0063 41.3578 15.5548 37.5179C15.7895 35.8754 17.1183 34.826 19.3978 34.4828C20.2352 34.3585 21.0893 34.5405 21.8032 34.9956C22.5171 35.4506 23.0428 36.148 23.2837 36.9596L25.5375 44.6647L19.3109 45.5741Z" fill="#F1CCAC"/>
<path d="M17.1411 48.5277L14.1206 45.5263C13.9141 45.3199 13.7641 45.0639 13.6852 44.7828C13.6063 44.5017 13.601 44.205 13.6699 43.9212L15.1321 37.9733C15.1759 37.795 15.2558 37.6277 15.3669 37.4816C15.478 37.3355 15.6179 37.2137 15.7779 37.1239C15.9379 37.034 16.1147 36.978 16.2973 36.9592C16.4798 36.9404 16.6643 36.9593 16.8393 37.0147C17.1728 37.1222 17.4514 37.3553 17.616 37.6646C17.7807 37.974 17.8184 38.3352 17.7213 38.6719L16.1819 43.9045L18.6713 46.5776L17.1411 48.5277Z" fill="#F1CCAC"/>
<path d="M33.342 38.2847C33.2621 38.4576 33.1453 38.6109 32.9998 38.7337C32.8543 38.8565 32.6837 38.946 32.4999 38.9958C32.3161 39.0455 32.1236 39.0544 31.936 39.0217C31.7484 38.989 31.5702 38.9156 31.4141 38.8066L27.3818 40.8965L27.5601 39.1212L31.1347 36.9089C31.3352 36.6587 31.6205 36.4908 31.9365 36.4369C32.2526 36.383 32.5774 36.4468 32.8495 36.6164C33.1215 36.786 33.3219 37.0495 33.4127 37.357C33.5035 37.6645 33.4783 37.9946 33.342 38.2847H33.342Z" fill="#FFDEDE"/>
<path d="M30.9739 39.6061L27.0431 41.3048C26.7815 41.4169 26.4954 41.4599 26.2123 41.4295C25.9293 41.3992 25.6588 41.2965 25.4269 41.1314L20.4285 37.55C20.2793 37.4431 20.1536 37.3067 20.0593 37.1493C19.9649 36.9919 19.9039 36.8168 19.8799 36.6348C19.8559 36.4529 19.8696 36.2679 19.9199 36.0914C19.9703 35.915 20.0564 35.7507 20.1728 35.6088C20.3965 35.3391 20.7165 35.167 21.0649 35.1291C21.4132 35.0912 21.7627 35.1904 22.0392 35.4057L26.3252 38.779L29.7319 37.461L30.9739 39.6061Z" fill="#F1CCAC"/>
<path d="M20.1755 31.333C20.568 30.8413 21.3013 30.8148 21.8404 30.4905C22.5466 30.0656 22.8385 29.116 22.611 28.3239C22.3834 27.5318 21.7123 26.9145 20.9428 26.6192C20.1733 26.324 19.3173 26.3204 18.5055 26.4631C17.297 26.6756 16.1071 27.2396 15.37 28.2207C14.6329 29.2017 14.4454 30.6385 15.1134 31.6678C15.4204 32.1409 15.8943 32.5314 16.0169 33.0819C16.1778 33.8047 15.6709 34.5017 15.1278 35.005C14.509 35.5783 13.7992 36.0585 13.2571 36.7048C12.715 37.3511 12.3535 38.2341 12.6009 39.0405C12.8081 39.7162 13.4112 40.214 14.0726 40.4633C14.7339 40.7126 15.4542 40.7486 16.1608 40.7624C16.8469 40.7759 17.5757 40.7592 18.1537 40.3892C18.7725 39.9932 19.1029 39.2418 19.1273 38.5075C19.1517 37.7732 18.9064 37.0538 18.5775 36.3969C18.3815 36.0053 18.1536 35.6258 18.0234 35.2077C17.8931 34.7896 17.8705 34.3152 18.0791 33.9302C18.2984 33.5254 18.742 33.2814 19.1936 33.1926C19.2171 33.188 19.2419 33.1839 19.2679 33.1802C19.3964 33.1635 19.5202 33.121 19.6318 33.0551C19.7434 32.9892 19.8405 32.9014 19.9172 32.7969C19.9938 32.6925 20.0485 32.5735 20.078 32.4473C20.1074 32.3211 20.1109 32.1903 20.0883 32.0627C20.0368 31.7758 20.0412 31.5013 20.1755 31.333Z" fill="#2F2E41"/>
<path d="M62.5935 73.4833H61.0054L60.25 67.358L62.5937 67.3582L62.5935 73.4833Z" fill="#A0616A"/>
<path d="M59.8707 73.0294H62.9333V74.9577H57.9424C57.9424 74.7045 57.9923 74.4538 58.0892 74.2198C58.1861 73.9859 58.3281 73.7733 58.5072 73.5942C58.6862 73.4152 58.8988 73.2731 59.1328 73.1762C59.3667 73.0793 59.6175 73.0294 59.8707 73.0294Z" fill="#2F2E41"/>
<path d="M74.116 71.6845L72.6715 72.3442L69.4392 67.0866L71.5712 66.1128L74.116 71.6845Z" fill="#A0616A"/>
<path d="M71.4513 72.4027L74.2371 71.1303L75.0382 72.8843L70.4984 74.9579C70.3932 74.7275 70.3344 74.4787 70.3253 74.2257C70.3163 73.9726 70.3572 73.7202 70.4457 73.483C70.5341 73.2457 70.6685 73.0282 70.841 72.8428C71.0136 72.6575 71.2209 72.5079 71.4513 72.4027Z" fill="#2F2E41"/>
<path d="M69.4913 52.8304C69.6434 52.7159 69.7686 52.5694 69.8581 52.4013C69.9475 52.2331 69.9989 52.0475 70.0088 51.8573C70.0187 51.6671 69.9868 51.4771 69.9153 51.3006C69.8438 51.1241 69.7345 50.9654 69.5951 50.8358L71.4618 46.6001L69.0903 47.002L67.6812 50.9627C67.4788 51.2114 67.3748 51.5256 67.3887 51.8459C67.4026 52.1662 67.5335 52.4703 67.7566 52.7005C67.9798 52.9307 68.2796 53.0711 68.5993 53.095C68.919 53.119 69.2364 53.0248 69.4913 52.8304Z" fill="#A0616A"/>
<path d="M62.4922 71.8682H60.9752C60.828 71.8677 60.6865 71.8118 60.5787 71.7116C60.471 71.6114 60.405 71.4743 60.3938 71.3276L59.5665 49.2349C59.5603 49.1502 59.5727 49.0652 59.6028 48.9858C59.633 48.9065 59.68 48.8347 59.7408 48.7754C59.8016 48.7161 59.8745 48.6708 59.9546 48.6427C60.0347 48.6146 60.12 48.6043 60.2045 48.6125L68.9783 49.5443C69.1205 49.5582 69.2526 49.6238 69.3496 49.7287C69.4466 49.8336 69.5017 49.9705 69.5044 50.1134L69.6883 59.8587C69.6893 59.9116 69.6995 59.9639 69.7186 60.0133L73.3177 69.3464C73.3455 69.4185 73.3587 69.4954 73.3565 69.5727C73.3543 69.6499 73.3367 69.726 73.3049 69.7964C73.273 69.8668 73.2275 69.9301 73.1709 69.9828C73.1143 70.0354 73.0478 70.0763 72.9753 70.103L71.438 70.6694C71.3044 70.7186 71.1575 70.7172 71.0249 70.6656C70.8924 70.614 70.7832 70.5156 70.7181 70.3891L66.2969 61.7922C66.2728 61.7455 66.2552 61.6957 66.2445 61.6442L65.4892 58.0052C65.4673 57.8997 65.4086 57.8054 65.3234 57.7393C65.2383 57.6732 65.1325 57.6396 65.0248 57.6444C64.9172 57.6493 64.8148 57.6924 64.736 57.7659C64.6572 57.8394 64.6072 57.9386 64.5949 58.0457L63.0714 71.3516C63.0551 71.4938 62.9871 71.6251 62.8803 71.7203C62.7735 71.8156 62.6354 71.8683 62.4922 71.8682Z" fill="#2F2E41"/>
<path d="M65.4296 51.2549C63.2722 51.2311 61.1661 50.5931 59.3581 49.4157L59.3271 49.3944L59.3303 49.3569L60.5473 35.184C60.5892 34.7032 60.8039 34.2538 61.1515 33.919C61.4991 33.5842 61.9562 33.3865 62.4383 33.3626C64.0155 33.2902 66.134 33.3815 67.268 34.2262C68.9818 35.5026 69.8078 37.4248 69.5342 39.4997C68.9669 43.8026 69.6096 49.6069 69.6847 50.2546L69.6902 50.3013L69.6475 50.3209C68.3263 50.9356 66.8868 51.2543 65.4296 51.2549Z" fill="#25737D"/>
<path d="M69.6699 50.2786C69.5802 50.2785 69.4916 50.2597 69.4095 50.2235C69.3274 50.1874 69.2538 50.1346 69.1931 50.0685L68.4972 49.3093C68.422 49.2268 68.3693 49.1263 68.3442 49.0175C68.319 48.9088 68.3222 48.7953 68.3536 48.6882L69.9404 43.3173L67.526 38.247C67.4132 38.0096 67.3856 37.7407 67.4478 37.4854C67.5025 37.2613 67.624 37.0591 67.796 36.9054C67.9681 36.7517 68.1827 36.6538 68.4116 36.6246C68.6404 36.5953 68.8727 36.6361 69.0779 36.7416C69.2831 36.8471 69.4515 37.0123 69.5608 37.2155L72.8373 42.5317C72.9704 42.7474 73.0485 42.9924 73.0648 43.2453C73.081 43.4983 73.0349 43.7513 72.9306 43.9822L70.2609 49.8973C70.217 49.9951 70.1493 50.0804 70.0642 50.1455C69.979 50.2106 69.879 50.2535 69.7731 50.2703C69.739 50.2758 69.7045 50.2786 69.6699 50.2786Z" fill="#25737D"/>
<path d="M47.245 40.0191C47.3978 40.1328 47.5737 40.2115 47.7602 40.2499C47.9467 40.2882 48.1394 40.2852 48.3246 40.241C48.5098 40.1968 48.6831 40.1125 48.8323 39.9941C48.9814 39.8757 49.1028 39.7261 49.1878 39.5557L53.7782 40.151L52.7232 37.9894L48.5259 37.7554C48.2302 37.6315 47.8993 37.6204 47.596 37.7242C47.2926 37.8279 47.0379 38.0393 46.88 38.3184C46.7221 38.5974 46.6721 38.9246 46.7394 39.2381C46.8066 39.5516 46.9866 39.8294 47.245 40.0191V40.0191Z" fill="#C78458"/>
<path d="M57.3632 41.1998C57.2832 41.1998 57.2034 41.1943 57.1242 41.1833L49.9027 40.1817C49.7847 40.1655 49.6726 40.1202 49.5765 40.0498C49.4803 39.9794 49.4032 39.8863 49.3521 39.7787C49.3356 39.744 49.3218 39.7081 49.3109 39.6713H49.3109C49.283 39.5756 49.2752 39.4753 49.288 39.3765C49.3008 39.2777 49.334 39.1826 49.3854 39.0972L49.983 38.1065C50.0473 38.0006 50.1377 37.913 50.2456 37.8521C50.3534 37.7911 50.4751 37.7589 50.599 37.7585H50.6L56.8947 37.7658L61.5959 33.5538C61.8146 33.3583 62.094 33.2439 62.387 33.23C62.6443 33.2181 62.8991 33.2844 63.1179 33.4203C63.3367 33.5562 63.5092 33.7551 63.6127 33.991C63.7161 34.2269 63.7456 34.4886 63.6972 34.7416C63.6489 34.9946 63.525 35.227 63.342 35.4081L58.651 40.6254C58.4886 40.8062 58.2901 40.9507 58.0682 41.0497C57.8463 41.1486 57.6061 41.1998 57.3632 41.1998Z" fill="#25737D"/>
<path d="M95.7865 75H0.15419C0.133899 75 0.113796 74.9961 0.0950317 74.9884C0.0762679 74.9807 0.0592137 74.9693 0.0448446 74.955C0.0304755 74.9407 0.0190744 74.9236 0.0112956 74.9049C0.00351673 74.8861 -0.000488281 74.8661 -0.000488281 74.8458C-0.000488281 74.8255 0.00351673 74.8054 0.0112956 74.7866C0.0190744 74.7679 0.0304755 74.7509 0.0448446 74.7365C0.0592137 74.7222 0.0762679 74.7109 0.0950317 74.7031C0.113796 74.6954 0.133899 74.6915 0.15419 74.6915H95.7865C95.8068 74.6915 95.8269 74.6954 95.8457 74.7031C95.8645 74.7109 95.8815 74.7222 95.8959 74.7365C95.9103 74.7509 95.9217 74.7679 95.9294 74.7866C95.9372 74.8054 95.9412 74.8255 95.9412 74.8458C95.9412 74.8661 95.9372 74.8861 95.9294 74.9049C95.9217 74.9236 95.9103 74.9407 95.8959 74.955C95.8815 74.9693 95.8645 74.9807 95.8457 74.9884C95.8269 74.9961 95.8068 75 95.7865 75Z" fill="#3F3D56"/>
<path d="M63.2476 31.9604C65.0046 31.9604 66.429 30.536 66.429 28.779C66.429 27.0219 65.0046 25.5975 63.2476 25.5975C61.4905 25.5975 60.0662 27.0219 60.0662 28.779C60.0662 30.536 61.4905 31.9604 63.2476 31.9604Z" fill="#C78458"/>
<path d="M63.6092 31.6092C63.9 30.9364 64.146 30.0403 63.5883 29.5646C63.2649 29.2886 62.799 29.2881 62.3752 29.2537C61.1813 29.157 59.9523 28.6077 59.3687 27.5616C58.7851 26.5155 59.111 24.96 60.212 24.4881C60.9541 24.1699 61.8049 24.3867 62.5817 24.6069L64.914 25.2683C65.607 25.4648 66.3346 25.6815 66.8335 26.2011C67.6292 27.0298 67.5697 28.4306 66.9378 29.3899C66.3058 30.3493 65.354 31.3499 64.2645 31.7141L63.6092 31.6092Z" fill="#2F2E41"/>
</g>
<defs>
<clipPath id="clip0_169_393">
<rect width="106.433" height="75" fill="white"/>
</clipPath>
</defs>
</svg>
