<svg width="300" height="249" viewBox="0 0 353 249" fill="none" xmlns="http://www.w3.org/2000/svg">
<g clip-path="url(#clip0_70_242)">
<path d="M78.2217 24.9174H55.7102C53.546 24.9193 51.4709 25.7799 49.9406 27.3103C48.4102 28.8407 47.5496 30.9157 47.5476 33.08V57.4861C47.2598 57.4689 46.972 57.4431 46.6884 57.4088C41.3552 56.8477 36.2849 54.8078 32.049 51.5193C27.8131 48.2307 24.5801 43.8242 22.7145 38.7965C20.849 33.7689 20.4251 28.3201 21.4906 23.0644C22.5561 17.8087 25.0686 12.9552 28.7449 9.05104C32.4212 5.14691 37.1151 2.34744 42.2973 0.968244C47.4796 -0.410949 52.944 -0.315012 58.0746 1.24525C63.2052 2.8055 67.7979 5.76803 71.3349 9.79881C74.8719 13.8296 77.2126 18.7683 78.0929 24.0582C78.1401 24.3417 78.1831 24.6295 78.2217 24.9174Z" fill="#FCC04E"/>
<path d="M343.978 24.0582H55.7101C53.3182 24.0608 51.025 25.0121 49.3336 26.7035C47.6423 28.3948 46.6909 30.688 46.6883 33.08V185.162C46.6909 187.554 47.6423 189.847 49.3336 191.538C51.025 193.23 53.3182 194.181 55.7101 194.184H343.978C346.37 194.181 348.663 193.23 350.355 191.538C352.046 189.847 352.997 187.554 353 185.162V33.08C352.997 30.688 352.046 28.3948 350.355 26.7035C348.663 25.0121 346.37 24.0608 343.978 24.0582ZM352.141 185.162C352.139 187.326 351.278 189.401 349.748 190.931C348.217 192.462 346.142 193.322 343.978 193.324H55.7101C53.5458 193.322 51.4708 192.462 49.9404 190.931C48.4101 189.401 47.5495 187.326 47.5475 185.162V33.08C47.5495 30.9157 48.4101 28.8407 49.9404 27.3103C51.4708 25.7799 53.5458 24.9193 55.7101 24.9174H343.978C346.142 24.9193 348.217 25.7799 349.748 27.3103C351.278 28.8407 352.139 30.9157 352.141 33.08V185.162Z" fill="#3F3D56"/>
<path d="M329.801 48.7047H69.8874C69.7734 48.7047 69.6642 48.6595 69.5836 48.5789C69.503 48.4983 69.4577 48.389 69.4577 48.2751C69.4577 48.1612 69.503 48.0519 69.5836 47.9713C69.6642 47.8908 69.7734 47.8455 69.8874 47.8455H329.801C329.915 47.8455 330.024 47.8908 330.105 47.9713C330.186 48.0519 330.231 48.1612 330.231 48.2751C330.231 48.389 330.186 48.4983 330.105 48.5789C330.024 48.6595 329.915 48.7047 329.801 48.7047Z" fill="#3F3D56"/>
<path d="M143.351 175.71C143.237 175.71 143.128 175.665 143.047 175.585C142.967 175.504 142.921 175.395 142.921 175.281V33.9392C142.921 33.8252 142.967 33.7159 143.047 33.6354C143.128 33.5548 143.237 33.5096 143.351 33.5096C143.465 33.5096 143.574 33.5548 143.655 33.6354C143.735 33.7159 143.78 33.8252 143.78 33.9392V175.281C143.78 175.395 143.735 175.504 143.655 175.585C143.574 175.665 143.465 175.71 143.351 175.71Z" fill="#3F3D56"/>
<path d="M208.222 175.71C208.108 175.71 207.998 175.665 207.918 175.585C207.837 175.504 207.792 175.395 207.792 175.281V33.9392C207.792 33.8252 207.837 33.7159 207.918 33.6354C207.998 33.5548 208.108 33.5096 208.222 33.5096C208.336 33.5096 208.445 33.5548 208.525 33.6354C208.606 33.7159 208.651 33.8252 208.651 33.9392V175.281C208.651 175.395 208.606 175.504 208.525 175.585C208.445 175.665 208.336 175.71 208.222 175.71Z" fill="#3F3D56"/>
<path d="M273.093 175.71C272.979 175.71 272.87 175.665 272.789 175.585C272.708 175.504 272.663 175.395 272.663 175.281V33.9392C272.663 33.8252 272.708 33.7159 272.789 33.6354C272.87 33.5548 272.979 33.5096 273.093 33.5096C273.207 33.5096 273.316 33.5548 273.397 33.6354C273.477 33.7159 273.522 33.8252 273.522 33.9392V175.281C273.522 175.395 273.477 175.504 273.397 175.585C273.316 175.665 273.207 175.71 273.093 175.71Z" fill="#3F3D56"/>
<path d="M101.642 93.048H85.9444C85.4319 93.0475 84.9405 92.8436 84.5781 92.4812C84.2156 92.1187 84.0118 91.6274 84.0112 91.1148V72.5902C84.0118 72.0776 84.2156 71.5862 84.5781 71.2238C84.9405 70.8614 85.4319 70.6575 85.9444 70.657H101.642C102.155 70.6575 102.646 70.8614 103.009 71.2238C103.371 71.5862 103.575 72.0776 103.576 72.5902V91.1148C103.575 91.6274 103.371 92.1187 103.009 92.4812C102.646 92.8436 102.155 93.0475 101.642 93.048Z" fill="#FCC04E"/>
<path d="M123.982 145.89H108.284C107.772 145.889 107.28 145.686 106.918 145.323C106.556 144.961 106.352 144.469 106.351 143.957V125.432C106.352 124.92 106.556 124.428 106.918 124.066C107.28 123.703 107.772 123.5 108.284 123.499H123.982C124.495 123.5 124.986 123.703 125.349 124.066C125.711 124.428 125.915 124.92 125.916 125.432V143.957C125.915 144.469 125.711 144.961 125.349 145.323C124.986 145.686 124.495 145.889 123.982 145.89Z" fill="#FCC04E"/>
<path d="M174.676 104.218H158.978C158.465 104.217 157.974 104.013 157.612 103.651C157.249 103.289 157.045 102.797 157.045 102.285V83.7601C157.045 83.2475 157.249 82.7561 157.612 82.3937C157.974 82.0312 158.465 81.8274 158.978 81.8268H174.676C175.188 81.8274 175.68 82.0312 176.042 82.3937C176.405 82.7561 176.609 83.2475 176.609 83.7601V102.285C176.609 102.797 176.405 103.289 176.042 103.651C175.68 104.013 175.188 104.217 174.676 104.218Z" fill="#FCC04E"/>
<path d="M240.406 84.0262H224.708C224.196 84.0256 223.704 83.8218 223.342 83.4593C222.979 83.0969 222.776 82.6055 222.775 82.093V63.5684C222.776 63.0558 222.979 62.5644 223.342 62.202C223.704 61.8396 224.196 61.6357 224.708 61.6351H240.406C240.919 61.6357 241.41 61.8396 241.773 62.202C242.135 62.5644 242.339 63.0558 242.339 63.5684V82.093C242.339 82.6055 242.135 83.0969 241.773 83.4593C241.41 83.8218 240.919 84.0256 240.406 84.0262Z" fill="#FCC04E"/>
<path d="M300.981 84.0262H285.283C284.771 84.0256 284.279 83.8218 283.917 83.4593C283.555 83.0969 283.351 82.6055 283.35 82.093V63.5684C283.351 63.0558 283.555 62.5644 283.917 62.202C284.279 61.8396 284.771 61.6357 285.283 61.6351H300.981C301.494 61.6357 301.985 61.8396 302.348 62.202C302.71 62.5644 302.914 63.0558 302.915 63.5684V82.093C302.914 82.6055 302.71 83.0969 302.348 83.4593C301.985 83.8218 301.494 84.0256 300.981 84.0262Z" fill="#FCC04E"/>
<path d="M328.906 89.1816H313.208C312.695 89.181 312.204 88.9771 311.841 88.6147C311.479 88.2523 311.275 87.7609 311.274 87.2483V68.7237C311.275 68.2112 311.479 67.7198 311.841 67.3573C312.204 66.9949 312.695 66.791 313.208 66.7905H328.906C329.418 66.791 329.91 66.9949 330.272 67.3573C330.634 67.7198 330.838 68.2112 330.839 68.7237V87.2483C330.838 87.7609 330.634 88.2523 330.272 88.6147C329.91 88.9771 329.418 89.181 328.906 89.1816Z" fill="#E6E6E6"/>
<path d="M316.447 122.262H300.749C300.237 122.261 299.745 122.057 299.383 121.695C299.02 121.332 298.817 120.841 298.816 120.328V101.804C298.817 101.291 299.02 100.8 299.383 100.437C299.745 100.075 300.237 99.871 300.749 99.8704H316.447C316.96 99.871 317.451 100.075 317.813 100.437C318.176 100.8 318.38 101.291 318.38 101.804V120.328C318.38 120.841 318.176 121.332 317.813 121.695C317.451 122.057 316.96 122.261 316.447 122.262Z" fill="#E6E6E6"/>
<path d="M263.175 115.388H247.477C246.965 115.387 246.473 115.183 246.111 114.821C245.749 114.458 245.545 113.967 245.544 113.455V94.9299C245.545 94.4174 245.749 93.926 246.111 93.5635C246.473 93.2011 246.965 92.9973 247.477 92.9967H263.175C263.688 92.9973 264.179 93.2011 264.542 93.5635C264.904 93.926 265.108 94.4174 265.109 94.9299V113.455C265.108 113.967 264.904 114.458 264.542 114.821C264.179 115.183 263.688 115.387 263.175 115.388Z" fill="#FFA141"/>
<path d="M232.673 122.262H216.975C216.463 122.261 215.971 122.057 215.609 121.695C215.247 121.332 215.043 120.841 215.042 120.328V101.804C215.043 101.291 215.247 100.8 215.609 100.437C215.971 100.075 216.463 99.871 216.975 99.8704H232.673C233.186 99.871 233.677 100.075 234.04 100.437C234.402 100.8 234.606 101.291 234.607 101.804V120.328C234.606 120.841 234.402 121.332 234.04 121.695C233.677 122.057 233.186 122.261 232.673 122.262Z" fill="#E6E6E6"/>
<path d="M166.943 151.475H151.245C150.732 151.474 150.241 151.271 149.878 150.908C149.516 150.546 149.312 150.054 149.312 149.542V131.017C149.312 130.505 149.516 130.013 149.878 129.651C150.241 129.288 150.732 129.084 151.245 129.084H166.943C167.455 129.084 167.947 129.288 168.309 129.651C168.672 130.013 168.875 130.505 168.876 131.017V149.542C168.875 150.054 168.672 150.546 168.309 150.908C167.947 151.271 167.455 151.474 166.943 151.475Z" fill="#E6E6E6"/>
<path d="M87.4653 126.987H71.7674C71.2548 126.987 70.7634 126.783 70.401 126.42C70.0386 126.058 69.8347 125.567 69.8341 125.054V106.529C69.8347 106.017 70.0386 105.525 70.401 105.163C70.7634 104.801 71.2548 104.597 71.7674 104.596H87.4653C87.9779 104.597 88.4693 104.801 88.8317 105.163C89.1941 105.525 89.398 106.017 89.3986 106.529V125.054C89.398 125.567 89.1941 126.058 88.8317 126.42C88.4693 126.783 87.9779 126.987 87.4653 126.987Z" fill="#FFA141"/>
<path d="M131.715 93.048H116.017C115.504 93.0475 115.013 92.8436 114.651 92.4812C114.288 92.1187 114.084 91.6274 114.084 91.1148V72.5902C114.084 72.0776 114.288 71.5862 114.651 71.2238C115.013 70.8614 115.504 70.6575 116.017 70.657H131.715C132.227 70.6575 132.719 70.8614 133.081 71.2238C133.444 71.5862 133.648 72.0776 133.648 72.5902V91.1148C133.648 91.6274 133.444 92.1187 133.081 92.4812C132.719 92.8436 132.227 93.0475 131.715 93.048Z" fill="#E6E6E6"/>
<path d="M118.863 41.6721H94.3752C93.9194 41.6721 93.4823 41.4911 93.1601 41.1688C92.8378 40.8466 92.6568 40.4095 92.6568 39.9537C92.6568 39.4979 92.8378 39.0608 93.1601 38.7386C93.4823 38.4163 93.9194 38.2353 94.3752 38.2353H118.863C119.319 38.2353 119.756 38.4163 120.078 38.7386C120.4 39.0608 120.581 39.4979 120.581 39.9537C120.581 40.4095 120.4 40.8466 120.078 41.1688C119.756 41.4911 119.319 41.6721 118.863 41.6721Z" fill="#CCCCCC"/>
<path d="M188.03 41.6721H163.542C163.087 41.6721 162.649 41.4911 162.327 41.1688C162.005 40.8466 161.824 40.4095 161.824 39.9537C161.824 39.4979 162.005 39.0608 162.327 38.7386C162.649 38.4163 163.087 38.2353 163.542 38.2353H188.03C188.486 38.2353 188.923 38.4163 189.245 38.7386C189.567 39.0608 189.749 39.4979 189.749 39.9537C189.749 40.4095 189.567 40.8466 189.245 41.1688C188.923 41.4911 188.486 41.6721 188.03 41.6721Z" fill="#CCCCCC"/>
<path d="M252.901 41.6721H228.413C227.957 41.6721 227.52 41.4911 227.198 41.1688C226.876 40.8466 226.695 40.4095 226.695 39.9537C226.695 39.4979 226.876 39.0608 227.198 38.7386C227.52 38.4163 227.957 38.2353 228.413 38.2353H252.901C253.357 38.2353 253.794 38.4163 254.116 38.7386C254.438 39.0608 254.619 39.4979 254.619 39.9537C254.619 40.4095 254.438 40.8466 254.116 41.1688C253.794 41.4911 253.357 41.6721 252.901 41.6721Z" fill="#CCCCCC"/>
<path d="M313.476 41.6721H288.989C288.533 41.6721 288.096 41.4911 287.773 41.1688C287.451 40.8466 287.27 40.4095 287.27 39.9537C287.27 39.4979 287.451 39.0608 287.773 38.7386C288.096 38.4163 288.533 38.2353 288.989 38.2353H313.476C313.932 38.2353 314.369 38.4163 314.691 38.7386C315.014 39.0608 315.195 39.4979 315.195 39.9537C315.195 40.4095 315.014 40.8466 314.691 41.1688C314.369 41.4911 313.932 41.6721 313.476 41.6721Z" fill="#CCCCCC"/>
<path d="M64.0158 167.501C63.3872 167.439 62.7798 167.241 62.2363 166.919C61.6928 166.597 61.2265 166.161 60.8702 165.639C60.5138 165.118 60.2761 164.524 60.1738 163.901C60.0716 163.278 60.1072 162.64 60.2782 162.032L49.266 151.781L55.0884 150.304L65.9171 159.087C66.9194 159.442 67.7567 160.152 68.2703 161.083C68.7839 162.014 68.9381 163.101 68.7038 164.138C68.4694 165.176 67.8628 166.091 66.9987 166.71C66.1347 167.33 65.0734 167.612 64.0158 167.501Z" fill="#FFB8B8"/>
<path d="M79.222 243.268H84.489L86.9945 222.952H79.2211L79.222 243.268Z" fill="#FFDEDE"/>
<path d="M94.6468 248.158L78.0936 248.159L78.0933 241.763L88.2509 241.763C89.9471 241.762 91.5739 242.436 92.7733 243.636C93.9728 244.835 94.6467 246.462 94.6468 248.158L94.6468 248.158Z" fill="#2F2E41"/>
<path d="M43.1094 239.465L48.1994 240.82L55.8469 221.833L48.3351 219.833L43.1094 239.465Z" fill="#FFDEDE"/>
<path d="M56.7574 248.159L40.7612 243.902L42.4063 237.721L52.2221 240.334C53.8612 240.77 55.2599 241.84 56.1104 243.307C56.961 244.775 57.1937 246.52 56.7574 248.159Z" fill="#2F2E41"/>
<path d="M85.9052 239.421H77.8684C77.3607 239.423 76.8708 239.235 76.495 238.893C76.1193 238.552 75.8849 238.083 75.838 237.577L70.9591 186.912C70.9234 186.541 70.7596 186.193 70.4958 185.929C70.232 185.665 69.8846 185.501 69.513 185.464C69.1414 185.428 68.7688 185.522 68.4588 185.73C68.1489 185.938 67.9209 186.248 67.814 186.605L53.6483 233.948C53.4984 234.451 53.1601 234.877 52.7039 235.137C52.2477 235.397 51.7087 235.47 51.1995 235.343L43.723 233.473C43.462 233.408 43.2166 233.292 43.0007 233.131C42.7848 232.971 42.6028 232.769 42.4652 232.538C42.3275 232.307 42.2369 232.051 42.1986 231.785C42.1603 231.519 42.1751 231.247 42.242 230.987C42.3641 230.51 54.4475 183.288 54.553 182.803C57.2908 162.625 60.5663 157.218 62.3259 154.313C62.4716 154.073 62.6054 153.852 62.726 153.643C62.8768 153.382 63.8053 150.788 64.3944 149.104C64.4709 148.83 64.6033 148.575 64.7834 148.355C64.9634 148.135 65.1872 147.954 65.4405 147.825C72.8344 144.044 81.4853 146.661 83.9606 147.554C84.3709 147.698 84.7234 147.972 84.9651 148.334C92.3907 159.534 88.7466 224.586 87.9407 237.512C87.9071 238.03 87.6781 238.515 87.3001 238.869C86.9221 239.224 86.4234 239.421 85.9052 239.421Z" fill="#2F2E41"/>
<path d="M65.165 111.091C70.9925 111.091 75.7166 106.367 75.7166 100.539C75.7166 94.7115 70.9925 89.9874 65.165 89.9874C59.3375 89.9874 54.6133 94.7115 54.6133 100.539C54.6133 106.367 59.3375 111.091 65.165 111.091Z" fill="#FFDEDE"/>
<path d="M64.0472 151.153L63.9713 151.08C63.8291 150.942 49.7703 137.169 51.5897 124.433C52.3679 118.986 56.7753 115.505 64.3353 114.367C67.1127 113.955 69.9456 114.559 72.3134 116.068C74.6812 117.577 76.4247 119.89 77.2235 122.582L84.6986 148.137L64.0472 151.153Z" fill="#F1CCAC"/>
<path d="M56.8514 160.949L46.8336 150.995C46.1486 150.31 45.6513 149.461 45.3895 148.529C45.1277 147.596 45.1102 146.612 45.3387 145.671L50.1883 125.944C50.3336 125.353 50.5987 124.798 50.9671 124.313C51.3355 123.829 51.7995 123.425 52.3302 123.127C52.861 122.829 53.4473 122.643 54.0528 122.581C54.6583 122.518 55.2702 122.581 55.8506 122.765C56.9567 123.121 57.8806 123.894 58.4267 124.92C58.9727 125.946 59.0979 127.144 58.7758 128.261L53.6701 145.616L61.9265 154.482L56.8514 160.949Z" fill="#F1CCAC"/>
<path d="M110.584 126.976C110.319 127.55 109.931 128.058 109.449 128.465C108.966 128.873 108.4 129.17 107.791 129.335C107.181 129.5 106.543 129.529 105.92 129.421C105.298 129.312 104.707 129.069 104.19 128.707L90.816 135.639L91.4071 129.751L103.263 122.413C103.928 121.584 104.874 121.026 105.922 120.848C106.97 120.669 108.048 120.881 108.95 121.443C109.853 122.006 110.517 122.88 110.818 123.899C111.119 124.919 111.036 126.014 110.584 126.976H110.584Z" fill="#FFDEDE"/>
<path d="M102.729 131.359L89.6918 136.993C88.8241 137.365 87.8752 137.508 86.9365 137.407C85.9978 137.306 85.1007 136.966 84.3316 136.418L67.7534 124.54C67.2587 124.185 66.8419 123.733 66.5289 123.211C66.216 122.689 66.0135 122.108 65.934 121.505C65.8546 120.901 65.8998 120.288 66.0669 119.702C66.234 119.117 66.5195 118.572 66.9056 118.102C67.6476 117.207 68.7087 116.637 69.8641 116.511C71.0196 116.385 72.1786 116.714 73.0957 117.428L87.3108 128.616L98.6096 124.245L102.729 131.359Z" fill="#F1CCAC"/>
<path d="M66.9144 103.92C68.2162 102.289 70.6481 102.202 72.4362 101.126C74.7783 99.7164 75.7466 96.5672 74.9919 93.9401C74.2371 91.3129 72.0112 89.2655 69.4592 88.2863C66.9071 87.307 64.0678 87.2949 61.3757 87.7683C57.3673 88.4731 53.421 90.3438 50.9763 93.5976C48.5316 96.8514 47.9095 101.617 50.1251 105.031C51.1433 106.6 52.7153 107.895 53.1218 109.721C53.6555 112.118 51.9741 114.43 50.1729 116.099C48.1207 118 45.7663 119.593 43.9685 121.736C42.1706 123.88 40.9717 126.808 41.7921 129.483C42.4794 131.724 44.4797 133.375 46.673 134.202C48.8664 135.029 51.2553 135.148 53.5989 135.194C55.8746 135.239 58.2918 135.183 60.2089 133.956C62.2612 132.643 63.357 130.151 63.4379 127.715C63.5189 125.28 62.7051 122.894 61.6144 120.715C60.9643 119.416 60.2084 118.158 59.7764 116.771C59.3444 115.385 59.2696 113.811 59.9614 112.534C60.6886 111.192 62.1598 110.382 63.6578 110.088C63.7357 110.072 63.818 110.059 63.9041 110.047C64.3304 109.991 64.741 109.85 65.1111 109.632C65.4812 109.413 65.8031 109.122 66.0575 108.775C66.3118 108.429 66.4932 108.035 66.5908 107.616C66.6883 107.197 66.6999 106.763 66.625 106.34C66.4543 105.389 66.469 104.478 66.9144 103.92Z" fill="#2F2E41"/>
<path d="M207.6 243.718H202.333L199.828 223.402L207.601 223.403L207.6 243.718Z" fill="#A0616A"/>
<path d="M198.57 242.213H208.728V248.608H192.175C192.175 247.768 192.34 246.937 192.662 246.161C192.983 245.385 193.454 244.68 194.048 244.086C194.642 243.492 195.347 243.021 196.123 242.699C196.899 242.378 197.731 242.213 198.57 242.213Z" fill="#2F2E41"/>
<path d="M245.816 237.752L241.025 239.94L230.305 222.502L237.376 219.272L245.816 237.752Z" fill="#A0616A"/>
<path d="M236.978 240.134L246.217 235.914L248.875 241.731L233.818 248.608C233.469 247.844 233.274 247.019 233.244 246.18C233.214 245.341 233.349 244.504 233.643 243.717C233.936 242.93 234.382 242.208 234.954 241.593C235.526 240.979 236.214 240.483 236.978 240.134Z" fill="#2F2E41"/>
<path d="M230.478 175.219C230.982 174.84 231.398 174.354 231.694 173.796C231.991 173.239 232.161 172.623 232.194 171.992C232.227 171.361 232.121 170.731 231.884 170.146C231.647 169.56 231.284 169.034 230.822 168.604L237.013 154.556L229.148 155.889L224.474 169.025C223.803 169.85 223.458 170.892 223.504 171.954C223.55 173.017 223.985 174.025 224.725 174.789C225.465 175.552 226.459 176.018 227.519 176.097C228.58 176.176 229.632 175.864 230.478 175.219Z" fill="#A0616A"/>
<path d="M207.264 238.361H202.233C201.745 238.359 201.275 238.174 200.918 237.841C200.561 237.509 200.342 237.054 200.304 236.568L197.561 163.294C197.54 163.013 197.581 162.732 197.681 162.468C197.781 162.205 197.937 161.967 198.139 161.77C198.34 161.574 198.582 161.423 198.848 161.33C199.114 161.237 199.396 161.203 199.677 161.23L228.776 164.32C229.248 164.367 229.686 164.584 230.008 164.932C230.329 165.28 230.512 165.734 230.521 166.208L231.131 198.53C231.134 198.705 231.168 198.879 231.232 199.042L243.168 229.997C243.261 230.236 243.304 230.491 243.297 230.747C243.29 231.004 243.232 231.256 243.126 231.489C243.02 231.723 242.869 231.933 242.682 232.108C242.494 232.282 242.273 232.418 242.033 232.506L236.934 234.385C236.491 234.548 236.004 234.543 235.564 234.372C235.124 234.201 234.762 233.875 234.547 233.455L219.883 204.942C219.803 204.787 219.745 204.622 219.709 204.452L217.204 192.382C217.132 192.032 216.937 191.72 216.654 191.5C216.372 191.281 216.021 191.17 215.664 191.186C215.307 191.202 214.967 191.345 214.706 191.589C214.445 191.832 214.279 192.161 214.238 192.516L209.185 236.648C209.131 237.119 208.906 237.554 208.551 237.87C208.197 238.186 207.739 238.361 207.264 238.361Z" fill="#2F2E41"/>
<path d="M217.006 169.994C209.851 169.915 202.866 167.799 196.869 163.894L196.766 163.823L196.777 163.699L200.813 116.693C200.952 115.098 201.664 113.608 202.817 112.497C203.97 111.387 205.486 110.731 207.085 110.652C212.316 110.412 219.342 110.715 223.103 113.516C228.787 117.75 231.527 124.125 230.62 131.006C228.738 145.277 230.87 164.529 231.119 166.677L231.137 166.831L230.995 166.896C226.613 168.935 221.839 169.992 217.006 169.994Z" fill="#25737D"/>
<path d="M231.07 166.756C230.773 166.756 230.479 166.694 230.206 166.574C229.934 166.454 229.69 166.279 229.489 166.059L227.181 163.541C226.931 163.268 226.757 162.934 226.673 162.574C226.59 162.213 226.6 161.837 226.704 161.481L231.967 143.668L223.959 126.852C223.585 126.065 223.494 125.173 223.7 124.326C223.882 123.583 224.285 122.912 224.855 122.402C225.426 121.892 226.138 121.568 226.897 121.471C227.656 121.374 228.426 121.509 229.107 121.859C229.787 122.209 230.346 122.757 230.708 123.431L241.575 141.063C242.017 141.778 242.276 142.591 242.33 143.429C242.384 144.268 242.231 145.107 241.885 145.873L233.03 165.492C232.884 165.816 232.66 166.099 232.378 166.315C232.095 166.531 231.763 166.673 231.412 166.729C231.299 166.747 231.185 166.756 231.07 166.756Z" fill="#25737D"/>
<path d="M156.695 132.729C157.202 133.106 157.785 133.367 158.403 133.494C159.022 133.621 159.661 133.611 160.275 133.465C160.89 133.318 161.464 133.039 161.959 132.646C162.454 132.253 162.856 131.757 163.138 131.192L178.363 133.167L174.864 125.997L160.943 125.221C159.962 124.81 158.865 124.773 157.859 125.117C156.853 125.462 156.008 126.163 155.484 127.088C154.961 128.014 154.795 129.099 155.018 130.139C155.241 131.178 155.838 132.1 156.695 132.729V132.729Z" fill="#C78458"/>
<path d="M190.253 136.645C189.987 136.645 189.723 136.626 189.46 136.59L165.509 133.268C165.118 133.214 164.746 133.064 164.427 132.83C164.108 132.597 163.852 132.288 163.683 131.931C163.628 131.816 163.582 131.697 163.546 131.575H163.546C163.453 131.258 163.428 130.925 163.47 130.597C163.513 130.27 163.623 129.954 163.793 129.671L165.775 126.385C165.988 126.034 166.288 125.743 166.646 125.541C167.004 125.339 167.407 125.233 167.818 125.231H167.822L188.699 125.255L204.291 111.285C205.017 110.637 205.943 110.258 206.915 110.212C207.768 110.172 208.613 110.392 209.339 110.843C210.065 111.293 210.637 111.953 210.98 112.736C211.323 113.518 211.421 114.386 211.26 115.225C211.1 116.064 210.689 116.835 210.082 117.436L194.524 134.74C193.985 135.339 193.327 135.819 192.591 136.147C191.855 136.475 191.058 136.645 190.253 136.645Z" fill="#25737D"/>
<path d="M317.69 248.748H0.511991C0.444691 248.748 0.378016 248.735 0.315783 248.71C0.25355 248.684 0.196988 248.646 0.149331 248.599C0.101673 248.551 0.0638602 248.495 0.0380605 248.433C0.0122608 248.37 -0.00102234 248.304 -0.00102234 248.237C-0.00102234 248.169 0.0122608 248.103 0.0380605 248.04C0.0638602 247.978 0.101673 247.922 0.149331 247.874C0.196988 247.827 0.25355 247.789 0.315783 247.763C0.378016 247.738 0.444691 247.725 0.511991 247.725H317.69C317.758 247.725 317.824 247.738 317.886 247.763C317.949 247.789 318.005 247.827 318.053 247.874C318.101 247.922 318.138 247.978 318.164 248.04C318.19 248.103 318.203 248.169 318.203 248.237C318.203 248.304 318.19 248.37 318.164 248.433C318.138 248.495 318.101 248.551 318.053 248.599C318.005 248.646 317.949 248.684 317.886 248.71C317.824 248.735 317.758 248.748 317.69 248.748Z" fill="#3F3D56"/>
<path d="M209.769 106.001C215.597 106.001 220.321 101.277 220.321 95.4497C220.321 89.6222 215.597 84.8981 209.769 84.8981C203.942 84.8981 199.218 89.6222 199.218 95.4497C199.218 101.277 203.942 106.001 209.769 106.001Z" fill="#C78458"/>
<path d="M210.969 104.837C211.933 102.605 212.749 99.6331 210.9 98.0554C209.827 97.1402 208.282 97.1383 206.876 97.0244C202.916 96.7036 198.84 94.8817 196.905 91.4122C194.969 87.9427 196.05 82.7837 199.702 81.2184C202.163 80.1633 204.985 80.8821 207.561 81.6127L215.297 83.8062C217.595 84.458 220.008 85.1768 221.663 86.9C224.302 89.6484 224.105 94.2943 222.009 97.4762C219.913 100.658 216.756 103.976 213.142 105.185L210.969 104.837Z" fill="#2F2E41"/>
</g>
<defs>
<clipPath id="clip0_70_242">
<rect width="353" height="248.748" fill="white"/>
</clipPath>
</defs>
</svg>
