<svg width="350" height="249" viewBox="0 0 423 231" fill="none" xmlns="http://www.w3.org/2000/svg">
<g clip-path="url(#clip0_70_508)">
<path d="M366.884 228.847C366.924 228.726 370.836 216.622 363.912 205.822L363.206 206.275C369.907 216.73 366.126 228.465 366.087 228.582L366.884 228.847Z" fill="#00630A"/>
<path d="M358.962 207.375C359.111 208.082 359.398 208.753 359.807 209.35C360.215 209.946 360.737 210.457 361.343 210.851C361.948 211.246 362.626 211.518 363.337 211.65C364.047 211.783 364.777 211.775 365.485 211.626C366.192 211.477 366.863 211.189 367.459 210.781C368.056 210.372 368.566 209.85 368.961 209.245C369.356 208.639 369.627 207.961 369.76 207.251C369.893 206.54 369.884 205.81 369.735 205.103C369.108 202.128 363.789 194.724 360.814 195.351C357.839 195.979 358.334 204.4 358.962 207.375Z" fill="#00630A"/>
<path d="M359.965 221.289C362.62 224.159 367.37 224.081 367.37 224.081C367.37 224.081 367.815 219.351 365.16 216.482C362.505 213.613 357.755 213.691 357.755 213.691C357.755 213.691 357.31 218.42 359.965 221.289Z" fill="#00630A"/>
<path d="M400.208 229.687C400.303 229.401 409.535 200.837 393.196 175.349L391.528 176.418C407.344 201.091 398.42 228.784 398.328 229.061L400.208 229.687Z" fill="#00630A"/>
<path d="M381.512 179.014C382.224 182.385 384.246 185.335 387.132 187.216C390.019 189.096 393.534 189.753 396.905 189.042C400.276 188.331 403.227 186.311 405.108 183.425C406.989 180.539 407.647 177.023 406.937 173.652C405.457 166.631 392.904 149.158 385.883 150.639C378.862 152.12 380.032 171.993 381.512 179.014Z" fill="#00630A"/>
<path d="M383.88 211.851C390.146 218.622 401.355 218.438 401.355 218.438C401.355 218.438 402.406 207.277 396.14 200.506C389.874 193.735 378.665 193.918 378.665 193.918C378.665 193.918 377.614 205.08 383.88 211.851Z" fill="#00630A"/>
<path d="M243.959 227.536L237.833 224.956L233.63 194.245H177.665L173.11 224.831L167.629 227.571C167.367 227.703 167.156 227.918 167.032 228.184C166.908 228.45 166.877 228.749 166.944 229.035C167.012 229.32 167.173 229.574 167.403 229.756C167.633 229.938 167.918 230.037 168.211 230.037H243.454C243.755 230.037 244.046 229.933 244.278 229.743C244.511 229.553 244.67 229.288 244.73 228.993C244.789 228.699 244.745 228.393 244.605 228.127C244.464 227.861 244.236 227.653 243.959 227.536Z" fill="#E6E6E6"/>
<path d="M343.412 198.332H68.4968C67.0544 198.328 65.6721 197.753 64.6533 196.732C63.6346 195.711 63.0624 194.327 63.0624 192.885V154.118H348.847V192.885C348.847 194.327 348.275 195.711 347.256 196.732C346.237 197.753 344.855 198.328 343.412 198.332Z" fill="#CCCCCC"/>
<path d="M349.134 172.44H62.8116V6.56572C62.8136 4.82496 63.506 3.15608 64.7369 1.9252C65.9679 0.694312 67.6368 0.00195115 69.3775 0H342.568C344.309 0.00195001 345.978 0.694308 347.209 1.92519C348.44 3.15607 349.132 4.82496 349.134 6.56572V172.44Z" fill="#3F3D56"/>
<path d="M332.035 12.0388H79.9116C78.5697 12.0405 77.2832 12.5746 76.3348 13.5239C75.3863 14.4732 74.8533 15.76 74.8527 17.1019V155.339C74.8533 156.681 75.3863 157.967 76.3348 158.917C77.2832 159.866 78.5697 160.4 79.9116 160.402H332.035C333.377 160.399 334.663 159.865 335.611 158.916C336.559 157.967 337.093 156.68 337.094 155.339V17.1019C337.093 15.7602 336.559 14.4738 335.611 13.5246C334.663 12.5755 333.377 12.0412 332.035 12.0388Z" fill="white"/>
<path d="M124.602 12.0388V160.402H79.9116C78.5696 160.4 77.2832 159.866 76.3348 158.917C75.3863 157.967 74.8533 156.681 74.8527 155.339V17.1019C74.8533 15.76 75.3863 14.4732 76.3348 13.5239C77.2832 12.5746 78.5696 12.0405 79.9116 12.0388H124.602Z" fill="#F0F0F0"/>
<path d="M87.7331 86.9869C87.23 86.8724 86.708 86.8696 86.2037 86.9786C85.6994 87.0877 85.2252 87.306 84.8144 87.6182C84.4036 87.9303 84.0663 88.3288 83.8262 88.7854C83.586 89.2421 83.4489 89.7458 83.4246 90.2612L71.3951 93.8077L76.375 98.0116L87.0349 93.9993C87.9034 93.9829 88.7357 93.6485 89.3741 93.0595C90.0125 92.4704 90.4127 91.6676 90.4988 90.8033C90.5848 89.9389 90.3508 89.0729 89.8411 88.3696C89.3314 87.6662 88.5813 87.1743 87.7331 86.9869H87.7331Z" fill="#FFB6B6"/>
<path d="M39.1285 113.677C37.9393 113.676 36.7893 113.252 35.8835 112.481C34.9777 111.711 34.3751 110.643 34.1831 109.47C33.9911 108.296 34.2222 107.092 34.8351 106.073C35.4481 105.054 36.4031 104.286 37.5298 103.905L61.9067 95.6768L80.9217 88.7496L83.2552 96.9174L66.4688 107.978L40.1777 113.567C39.8328 113.64 39.4812 113.677 39.1285 113.677Z" fill="#25737D"/>
<path d="M54.3834 226.2H57.8058L59.4344 212.998H54.3826L54.3834 226.2Z" fill="#FFB6B6"/>
<path d="M53.5101 225.083L60.2506 225.082H60.2508C61.39 225.082 62.4826 225.535 63.2881 226.341C64.0937 227.146 64.5463 228.239 64.5464 229.378V229.517L53.5103 229.518L53.5101 225.083Z" fill="#2F2E41"/>
<path d="M28.141 226.2H31.5635L33.192 212.998H28.1406L28.141 226.2Z" fill="#FFB6B6"/>
<path d="M27.2679 225.083L34.0083 225.082H34.0086C35.1478 225.082 36.2403 225.535 37.0459 226.341C37.8514 227.146 38.304 228.239 38.3041 229.378V229.517L27.2681 229.518L27.2679 225.083Z" fill="#2F2E41"/>
<path d="M28.1071 147.014C26.5408 150.662 26.198 154.72 27.13 158.58L26.1529 224.066H33.6697L37.8783 188.053L44.8576 164.323L52.3954 182.748V221.15L59.6539 220.716L63.5624 179.957L59.0956 150.922L28.1071 147.014Z" fill="#2F2E41"/>
<path d="M55.6055 96.0643L49.1845 94.1101L47.5094 90.76H39.2617L37.18 94.3893C37.18 94.3893 28.8047 97.4602 28.5255 112.257C28.2463 127.053 27.1296 150.783 27.1296 150.783L60.1537 155.491L55.6055 96.0643Z" fill="#25737D"/>
<path d="M65.0866 152.841C65.3032 152.373 65.4145 151.863 65.4127 151.347C65.4108 150.831 65.2959 150.322 65.0759 149.855C64.856 149.388 64.5364 148.975 64.1397 148.646C63.7429 148.316 63.2787 148.077 62.7797 147.946L61.8117 135.442L56.6642 139.439L58.3726 150.7C58.2081 151.553 58.3622 152.437 58.8056 153.184C59.2491 153.931 59.9511 154.489 60.7787 154.753C61.6063 155.017 62.5019 154.968 63.2959 154.615C64.0898 154.263 64.727 153.632 65.0866 152.841H65.0866Z" fill="#FFB6B6"/>
<path d="M56.304 146.396L48.9747 127.677V100.799C48.9747 99.5184 49.4641 98.2865 50.3427 97.3554C51.2213 96.4242 52.4226 95.8641 53.7007 95.7898C54.9788 95.7155 56.237 96.1326 57.2175 96.9557C58.1981 97.7788 58.827 98.9456 58.9753 100.217L61.9561 125.772L64.7785 145.812L56.304 146.396Z" fill="#25737D"/>
<path d="M44.9679 86.4143C49.5199 86.4143 53.2101 82.7241 53.2101 78.172C53.2101 73.62 49.5199 69.9298 44.9679 69.9298C40.4158 69.9298 36.7256 73.62 36.7256 78.172C36.7256 82.7241 40.4158 86.4143 44.9679 86.4143Z" fill="#FFB9B9"/>
<path d="M45.5078 75.6666C45.1222 76.1616 44.5935 76.6085 44.5086 77.2302C44.4457 77.6909 44.647 78.1462 44.6661 78.6108C44.6677 79.0797 44.4904 79.5315 44.1704 79.8741C43.8504 80.2168 43.4118 80.4246 42.944 80.4551C42.6181 80.045 42.1472 79.7757 41.6285 79.7028C41.3704 79.6736 41.1096 79.728 40.8847 79.8579C40.6598 79.9879 40.4824 80.1866 40.3788 80.4248C40.134 81.1163 40.7006 81.8186 40.7917 82.5464C40.8038 83.0848 40.7167 83.6207 40.5348 84.1276C40.3259 84.9626 40.2701 85.8461 39.9037 86.625C39.5373 87.4039 38.7226 88.0738 37.8792 87.9017C37.17 87.7569 36.6902 87.07 36.4918 86.3739C36.2935 85.6779 36.3024 84.9398 36.1589 84.2304C35.6925 81.9252 33.7083 80.2173 32.9298 77.998C31.9323 75.1543 33.1306 71.9016 35.1959 69.707C36.0308 68.7454 37.1208 68.0397 38.3398 67.6714C39.6268 67.3437 40.9875 67.5793 42.3081 67.4391C43.7204 67.2892 45.0479 66.7153 46.4205 66.3506C47.7931 65.9858 49.3262 65.8485 50.5738 66.527C51.444 67.0003 52.0742 67.8164 52.885 68.3855C53.8144 69.033 54.9413 69.3346 56.07 69.2379L54.7222 69.8271C55.2381 70.3005 55.8611 70.6418 56.5379 70.8215C55.9871 71.2581 55.3057 71.4972 54.6029 71.5008C54.7495 71.7649 54.9487 71.9961 55.1881 72.1803C55.4276 72.3644 55.7023 72.4975 55.9952 72.5713C54.9718 73.0517 53.8853 73.544 52.7599 73.4356C52.2087 73.3825 51.6818 73.1866 51.1373 73.0857C49.9766 72.8708 48.7847 73.0936 47.6254 73.316C47.0167 73.4327 46.2696 73.5448 45.9621 74.1301C45.7062 74.6176 45.9019 75.1607 45.5078 75.6666Z" fill="#2F2E41"/>
<path d="M99.7274 99.3693C106.989 99.3693 112.876 93.4823 112.876 86.2203C112.876 78.9583 106.989 73.0713 99.7274 73.0713C92.4654 73.0713 86.5784 78.9583 86.5784 86.2203C86.5784 93.4823 92.4654 99.3693 99.7274 99.3693Z" fill="#FCC04E"/>
<path d="M107.617 86.2205H100.517V79.1199H98.9384V86.2205H91.8379V87.7982H98.9384V94.8988H100.517V87.7982H107.617V86.2205Z" fill="white"/>
<path d="M211.699 29.3915C211.293 29.3919 210.905 29.5532 210.618 29.8399C210.331 30.1266 210.17 30.5154 210.169 30.9209V56.5296C210.17 56.9351 210.331 57.3239 210.618 57.6106C210.905 57.8974 211.293 58.0587 211.699 58.0592H314.936C315.341 58.0587 315.73 57.8974 316.017 57.6106C316.303 57.3239 316.465 56.9351 316.465 56.5296V30.9209C316.465 30.5154 316.303 30.1266 316.017 29.8399C315.73 29.5532 315.341 29.3919 314.936 29.3915H211.699Z" fill="white"/>
<path d="M211.699 29.3915C211.293 29.3919 210.905 29.5532 210.618 29.8399C210.331 30.1266 210.17 30.5154 210.169 30.9209V56.5296C210.17 56.9351 210.331 57.3239 210.618 57.6106C210.905 57.8974 211.293 58.0587 211.699 58.0592H314.936C315.341 58.0587 315.73 57.8974 316.017 57.6106C316.303 57.3239 316.465 56.9351 316.465 56.5296V30.9209C316.465 30.5154 316.303 30.1266 316.017 29.8399C315.73 29.5532 315.341 29.3919 314.936 29.3915H211.699Z" fill="#E6E6E6"/>
<path d="M211.89 56.3385H314.745V31.1122H211.89V56.3385Z" fill="white"/>
<path d="M223.584 38.3723C223.229 38.3723 222.889 38.5133 222.638 38.7643C222.387 39.0152 222.246 39.3556 222.246 39.7106C222.246 40.0655 222.387 40.4059 222.638 40.6569C222.889 40.9078 223.229 41.0488 223.584 41.0488H303.047C303.223 41.0489 303.397 41.0144 303.559 40.9472C303.721 40.88 303.869 40.7815 303.993 40.6573C304.118 40.5331 304.216 40.3856 304.284 40.2232C304.351 40.0609 304.386 39.8869 304.386 39.7111C304.386 39.5354 304.351 39.3614 304.284 39.199C304.217 39.0366 304.118 38.889 303.994 38.7647C303.87 38.6404 303.722 38.5417 303.56 38.4744C303.398 38.4071 303.224 38.3724 303.048 38.3723H223.584Z" fill="#E4E4E4"/>
<path d="M223.584 46.4018C223.23 46.4025 222.89 46.5437 222.639 46.7946C222.389 47.0455 222.248 47.3856 222.248 47.7401C222.248 48.0946 222.389 48.4346 222.639 48.6855C222.89 48.9364 223.23 49.0777 223.584 49.0783H303.047C303.402 49.0791 303.742 48.9389 303.994 48.6885C304.245 48.4381 304.387 48.098 304.388 47.7431C304.389 47.3881 304.248 47.0474 303.998 46.7959C303.748 46.5444 303.407 46.4026 303.053 46.4018H223.584Z" fill="#E4E4E4"/>
<path d="M139.909 72.8437C139.503 72.8441 139.114 73.0054 138.828 73.2921C138.541 73.5788 138.38 73.9676 138.379 74.3731V99.9818C138.38 100.387 138.541 100.776 138.828 101.063C139.114 101.35 139.503 101.511 139.909 101.511H243.145C243.551 101.511 243.94 101.35 244.226 101.063C244.513 100.776 244.674 100.387 244.675 99.9818V74.3731C244.674 73.9676 244.513 73.5788 244.226 73.2921C243.94 73.0054 243.551 72.8441 243.145 72.8437H139.909Z" fill="white"/>
<path d="M139.909 72.8437C139.503 72.8441 139.114 73.0054 138.828 73.2921C138.541 73.5788 138.38 73.9676 138.379 74.3731V99.9818C138.38 100.387 138.541 100.776 138.828 101.063C139.114 101.35 139.503 101.511 139.909 101.511H243.145C243.551 101.511 243.94 101.35 244.226 101.063C244.513 100.776 244.674 100.387 244.675 99.9818V74.3731C244.674 73.9676 244.513 73.5788 244.226 73.2921C243.94 73.0054 243.551 72.8441 243.145 72.8437H139.909Z" fill="#E6E6E6"/>
<path d="M140.099 99.7907H242.954V74.5644H140.099V99.7907Z" fill="white"/>
<path d="M151.794 81.8245C151.439 81.8245 151.099 81.9655 150.848 82.2165C150.597 82.4674 150.456 82.8078 150.456 83.1627C150.456 83.5177 150.597 83.8581 150.848 84.109C151.099 84.36 151.439 84.501 151.794 84.501H231.256C231.432 84.5011 231.606 84.4665 231.769 84.3994C231.931 84.3322 232.078 84.2337 232.203 84.1094C232.327 83.9852 232.426 83.8377 232.493 83.6754C232.56 83.5131 232.595 83.3391 232.595 83.1633C232.595 82.9876 232.561 82.8136 232.494 82.6512C232.426 82.4888 232.328 82.3412 232.204 82.2169C232.079 82.0925 231.932 81.9939 231.77 81.9266C231.607 81.8593 231.433 81.8246 231.258 81.8245H151.794Z" fill="#E4E4E4"/>
<path d="M151.794 89.854C151.439 89.8546 151.099 89.9959 150.849 90.2468C150.599 90.4977 150.458 90.8377 150.458 91.1923C150.458 91.5468 150.599 91.8868 150.849 92.1377C151.099 92.3886 151.439 92.5299 151.794 92.5305H231.256C231.611 92.5313 231.952 92.3911 232.203 92.1406C232.455 91.8902 232.597 91.5502 232.597 91.1952C232.598 90.8403 232.458 90.4996 232.208 90.2481C231.957 89.9965 231.617 89.8548 231.262 89.854H151.794Z" fill="#E4E4E4"/>
<path d="M265.746 141.575C266.206 141.524 266.649 141.373 267.044 141.133C267.44 140.893 267.777 140.569 268.033 140.184C268.29 139.798 268.459 139.362 268.528 138.905C268.597 138.447 268.566 137.98 268.435 137.537L277.584 131.001L272.132 128.902L264.279 135.43C263.549 135.699 262.942 136.226 262.574 136.913C262.206 137.599 262.103 138.396 262.283 139.154C262.464 139.911 262.917 140.576 263.555 141.022C264.193 141.469 264.973 141.665 265.746 141.575Z" fill="#FFB7B7"/>
<path d="M270.826 137.271L267.791 132.087L267.855 132.013L280.101 118.071L289.609 101.856L297.866 102.909L297.988 105.404L297.963 105.442L284.845 125.161L284.831 125.173L270.826 137.271Z" fill="#F1CCAC"/>
<path d="M311.287 224.992L306.618 224.991L304.396 206.981L311.288 206.982L311.287 224.992Z" fill="#FFDEDE"/>
<path d="M312.478 229.518L297.422 229.517V229.327C297.422 227.773 298.04 226.282 299.139 225.183C300.237 224.084 301.728 223.467 303.282 223.467H303.282L312.478 223.467L312.478 229.518Z" fill="#2F2E41"/>
<path d="M271.101 224.839L266.56 223.754L268.582 205.721L275.285 207.321L271.101 224.839Z" fill="#FFDEDE"/>
<path d="M271.209 229.518L256.564 226.021L256.609 225.836C256.97 224.324 257.916 223.018 259.24 222.204C260.565 221.39 262.158 221.136 263.669 221.497L263.67 221.497L272.614 223.633L271.209 229.518Z" fill="#2F2E41"/>
<path d="M289.248 93.6223V85.7626C289.248 82.9694 290.358 80.2906 292.333 78.3154C294.308 76.3403 296.987 75.2307 299.78 75.2307C302.574 75.2307 305.252 76.3403 307.228 78.3154C309.203 80.2906 310.312 82.9694 310.312 85.7626V93.6223C310.312 93.9974 310.163 94.357 309.898 94.6222C309.632 94.8874 309.273 95.0366 308.898 95.037H290.663C290.288 95.0366 289.929 94.8874 289.663 94.6222C289.398 94.357 289.249 93.9974 289.248 93.6223Z" fill="#2F2E41"/>
<path d="M297.181 94.9176C301.446 94.9176 304.903 91.4605 304.903 87.196C304.903 82.9314 301.446 79.4743 297.181 79.4743C292.916 79.4743 289.459 82.9314 289.459 87.196C289.459 91.4605 292.916 94.9176 297.181 94.9176Z" fill="#FFDEDE"/>
<path d="M286.757 86.3914C286.759 84.1826 287.638 82.065 289.2 80.5031C290.761 78.9412 292.879 78.0627 295.088 78.0602H296.66C298.869 78.0627 300.986 78.9413 302.548 80.5031C304.11 82.065 304.989 84.1826 304.991 86.3914V86.5486H301.669L300.536 83.3759L300.309 86.5486H298.593L298.021 84.9478L297.907 86.5486H286.757V86.3914Z" fill="#2F2E41"/>
<path d="M301.685 127.95L282.025 127.202L280.926 114.34C280.078 111.985 280.064 109.964 280.885 108.332C281.591 106.991 282.776 105.966 284.205 105.462L288.507 100.266C289.06 99.5983 289.756 99.0616 290.542 98.6951C291.328 98.3286 292.186 98.1414 293.054 98.147L304.231 98.2234C304.5 98.0613 306.134 97.2308 309.357 98.628C312.853 100.144 312.042 105.407 312.033 105.46L312.025 105.509L311.986 105.542L304.551 111.803L301.685 127.95Z" fill="#F1CCAC"/>
<path d="M282.181 125.82L272.882 142.775L265.831 219.913L273.797 222.346L287.898 162.004L304.263 220.634L313.812 220.873L307.31 153.214L301.628 127.018L282.181 125.82Z" fill="#2F2E41"/>
<path d="M221.993 113.252C221.607 113.127 221.188 113.161 220.827 113.345C220.465 113.529 220.192 113.85 220.067 114.235L212.17 138.596C212.045 138.982 212.079 139.401 212.263 139.762C212.447 140.124 212.767 140.397 213.153 140.523L311.359 172.358C311.745 172.482 312.164 172.449 312.525 172.264C312.886 172.08 313.16 171.76 313.285 171.374L321.182 147.014C321.307 146.628 321.273 146.208 321.089 145.847C320.905 145.486 320.584 145.212 320.199 145.087L221.993 113.252Z" fill="white"/>
<path d="M221.993 113.252C221.607 113.127 221.188 113.161 220.827 113.345C220.465 113.529 220.192 113.85 220.067 114.235L212.17 138.596C212.045 138.982 212.079 139.401 212.263 139.762C212.447 140.124 212.767 140.397 213.153 140.523L311.359 172.358C311.745 172.482 312.164 172.449 312.525 172.264C312.886 172.08 313.16 171.76 313.285 171.374L321.182 147.014C321.307 146.628 321.273 146.208 321.089 145.847C320.905 145.486 320.584 145.212 320.199 145.087L221.993 113.252Z" fill="#E6E6E6"/>
<path d="M213.866 138.945L311.708 170.662L319.487 146.665L221.645 114.948L213.866 138.945Z" fill="white"/>
<path d="M230.53 125.46C230.192 125.351 229.825 125.38 229.509 125.542C229.193 125.703 228.954 125.983 228.845 126.321C228.736 126.658 228.765 127.025 228.926 127.341C229.087 127.657 229.367 127.897 229.705 128.006L305.295 152.51C305.462 152.564 305.638 152.585 305.813 152.572C305.989 152.558 306.16 152.51 306.316 152.43C306.473 152.35 306.613 152.24 306.727 152.107C306.841 151.973 306.928 151.818 306.982 151.651C307.036 151.483 307.057 151.307 307.043 151.132C307.029 150.957 306.981 150.786 306.901 150.629C306.821 150.472 306.711 150.333 306.577 150.219C306.443 150.105 306.288 150.018 306.121 149.964L306.12 149.964L230.53 125.46Z" fill="#FCC04E"/>
<path d="M228.054 133.098C227.717 132.99 227.35 133.019 227.034 133.181C226.719 133.342 226.48 133.622 226.371 133.96C226.262 134.297 226.29 134.664 226.451 134.979C226.612 135.295 226.892 135.534 227.229 135.644L302.818 160.148C303.156 160.258 303.523 160.23 303.84 160.069C304.156 159.909 304.396 159.629 304.506 159.292C304.616 158.954 304.588 158.587 304.427 158.27C304.267 157.954 303.987 157.714 303.65 157.604L303.644 157.602L228.054 133.098Z" fill="#FCC04E"/>
<path d="M307.027 153.269C307.371 152.96 307.643 152.579 307.825 152.154C308.006 151.728 308.091 151.268 308.076 150.806C308.06 150.343 307.943 149.89 307.733 149.478C307.523 149.066 307.225 148.705 306.86 148.42L310.491 137.779L304.836 139.248L302.255 149.128C301.818 149.772 301.632 150.555 301.732 151.327C301.833 152.099 302.214 152.807 302.802 153.318C303.39 153.828 304.145 154.105 304.924 154.096C305.702 154.087 306.451 153.793 307.027 153.269V153.269Z" fill="#FFDEDE"/>
<path d="M308.649 146.811L303.162 144.366L305.006 125.803L303.29 107.084L310.614 103.13L312.167 105.088L312.169 105.132L312.991 128.802L312.987 128.82L308.649 146.811Z" fill="#F1CCAC"/>
<path d="M421.941 230.357H135.01C134.865 230.361 134.723 230.316 134.606 230.229C134.489 230.143 134.404 230.021 134.364 229.882C134.339 229.787 134.336 229.687 134.355 229.591C134.375 229.495 134.416 229.404 134.476 229.326C134.536 229.248 134.613 229.185 134.701 229.142C134.789 229.099 134.886 229.076 134.984 229.076H421.888C422.041 229.071 422.192 229.117 422.315 229.208C422.438 229.299 422.527 229.429 422.567 229.577C422.588 229.671 422.587 229.768 422.565 229.862C422.543 229.955 422.501 230.042 422.441 230.117C422.381 230.192 422.305 230.253 422.218 230.294C422.132 230.336 422.037 230.357 421.941 230.357Z" fill="#CCCCCC"/>
<path d="M96.9939 230.357H1.0849C0.939782 230.361 0.797716 230.316 0.680842 230.229C0.563969 230.143 0.47885 230.021 0.438751 229.882C0.413716 229.787 0.410802 229.687 0.430231 229.591C0.449659 229.495 0.49091 229.404 0.550815 229.326C0.61072 229.248 0.687679 229.185 0.775771 229.142C0.863862 229.099 0.960738 229.076 1.05894 229.076H96.9413C97.0944 229.071 97.2448 229.117 97.368 229.208C97.4912 229.299 97.58 229.429 97.6199 229.577C97.6406 229.671 97.6401 229.768 97.6183 229.862C97.5965 229.955 97.554 230.042 97.4939 230.117C97.4339 230.192 97.3577 230.253 97.2712 230.294C97.1846 230.336 97.0899 230.357 96.9939 230.357Z" fill="#CCCCCC"/>
</g>
<defs>
<clipPath id="clip0_70_508">
<rect width="422.163" height="230.357" fill="white" transform="translate(0.418335)"/>
</clipPath>
</defs>
</svg>
